<?xml version="1.0" standalone="no"?>
<!DOCTYPE svg PUBLIC "-//W3C//DTD SVG 1.1//EN" "http://www.w3.org/Graphics/SVG/1.1/DTD/svg11.dtd" >
<svg xmlns="http://www.w3.org/2000/svg" xmlns:xlink="http://www.w3.org/1999/xlink" version="1.1">
<metadata>
Created by FontForge 20170731 at Sat Jan 17 23:57:08 2015
 By ,,,
Copyright 2007 Dalton Maag Ltd. All rights reserved. This font may not be altered in any way without prior permission of Dalton Maag Ltd. 
</metadata>
<defs>
<font id="Tondo-Light" horiz-adv-x="1249" >
  <font-face 
    font-family="Tondo"
    font-weight="400"
    font-stretch="normal"
    units-per-em="2048"
    panose-1="2 15 3 3 2 2 2 2 2 4"
    ascent="1638"
    descent="-410"
    x-height="1026"
    cap-height="1436"
    bbox="-236 -465 2048 1946"
    underline-thickness="102"
    underline-position="-306"
    unicode-range="U+000D-FB04"
  />
<missing-glyph horiz-adv-x="748" 
d="M68 0v1365h544v-1365h-544zM136 68h408v1229h-408v-1229z" />
    <glyph glyph-name="uniFB01" unicode="fi" horiz-adv-x="1081" 
d="M31 973q0 25 8 39t33 14h131v137q0 61 21.5 115.5t64.5 93.5t107.5 61.5t152.5 22.5q61 0 122.5 -14.5t112.5 -38.5q35 -16 57.5 -33.5t22.5 -40.5t-15 -39t-32 -16q-12 0 -25.5 6t-31.5 16q-31 18 -85 41t-136 23q-117 0 -168.5 -53.5t-51.5 -151.5v-129h545
q29 0 44.5 -12.5t15.5 -46.5v-922q0 -35 -15.5 -47t-44.5 -12t-43 12t-14 47v877h-488v-877q0 -35 -15 -47t-44 -12t-43 12t-14 47v877h-131q-25 0 -33 14t-8 37z" />
    <glyph glyph-name="uniFB02" unicode="fl" horiz-adv-x="1097" 
d="M31 973q0 25 8 39t33 14h131v158q0 121 74.5 196.5t216.5 75.5q39 0 77.5 -7t67.5 -19.5t47.5 -30t18.5 -37.5q0 -27 -11.5 -43t-27.5 -16q-12 0 -27.5 7t-34.5 17q-23 12 -48.5 22.5t-66.5 10.5q-72 0 -121 -41t-49 -150v-143h506v369q0 35 14.5 48t43.5 13t44 -13
t15 -48v-1350q0 -35 -15.5 -47t-43.5 -12q-29 0 -43.5 12t-14.5 47v877h-506v-877q0 -35 -15 -47t-44 -12t-43 12t-14 47v877h-131q-25 0 -33 14t-8 37z" />
    <glyph glyph-name="uniFB03" unicode="ffi" horiz-adv-x="1697" 
d="M31 973q0 25 8 39t33 14h131v158q0 121 74.5 196.5t216.5 75.5q39 0 77.5 -7t67.5 -19.5t47.5 -30t18.5 -37.5q0 -27 -11.5 -43t-27.5 -16q-12 0 -27.5 7t-34.5 17q-23 12 -48.5 22.5t-66.5 10.5q-72 0 -121 -41t-49 -150v-143h500v137q0 61 21.5 115.5t64.5 93.5
t107.5 61.5t152.5 22.5q61 0 123 -14.5t113 -38.5q35 -16 57.5 -33.5t22.5 -40.5t-15.5 -39t-31.5 -16q-12 0 -25.5 6t-32.5 16q-31 18 -85 41t-136 23q-117 0 -168 -53.5t-51 -151.5v-129h545q29 0 44 -12.5t15 -46.5v-922q0 -35 -15.5 -47t-43.5 -12q-29 0 -43.5 12
t-14.5 47v877h-487v-877q0 -35 -15.5 -47t-43.5 -12q-29 0 -43.5 12t-14.5 47v877h-500v-877q0 -35 -15 -47t-44 -12t-43 12t-14 47v877h-131q-25 0 -33 14t-8 37z" />
    <glyph glyph-name="uniFB04" unicode="ffl" horiz-adv-x="1701" 
d="M31 973q0 25 8 39t33 14h131v158q0 121 74.5 196.5t216.5 75.5q39 0 77.5 -7t67.5 -19.5t47.5 -30t18.5 -37.5q0 -27 -11.5 -43t-27.5 -16q-12 0 -27.5 7t-34.5 17q-23 12 -48.5 22.5t-66.5 10.5q-72 0 -121 -41t-49 -150v-143h486v158q0 121 74.5 196.5t216.5 75.5
q39 0 77.5 -7t67.5 -19.5t47.5 -30t18.5 -37.5q0 -27 -11.5 -43t-27.5 -16q-12 0 -27.5 7t-34.5 17q-23 12 -48 22.5t-66 10.5q-72 0 -121 -41t-49 -150v-143h505v369q0 35 14.5 48t43.5 13t44 -13t15 -48v-1350q0 -35 -15.5 -47t-43.5 -12q-29 0 -43.5 12t-14.5 47v877
h-505v-877q0 -35 -15.5 -47t-44.5 -12t-43 12t-14 47v877h-486v-877q0 -35 -15 -47t-44 -12t-43 12t-14 47v877h-131q-25 0 -33 14t-8 37z" />
    <glyph glyph-name=".notdef" horiz-adv-x="748" 
d="M68 0v1365h544v-1365h-544zM136 68h408v1229h-408v-1229z" />
    <glyph glyph-name="glyph1" horiz-adv-x="0" 
 />
    <glyph glyph-name="uni000D" unicode="&#xd;" horiz-adv-x="501" 
 />
    <glyph glyph-name="uni001D" horiz-adv-x="0" 
 />
    <glyph glyph-name="uni001D" horiz-adv-x="0" 
 />
    <glyph glyph-name="space" unicode=" " horiz-adv-x="501" 
 />
    <glyph glyph-name="exclam" unicode="!" horiz-adv-x="534" 
d="M160 68q0 43 29.5 74.5t74.5 31.5t76 -31.5t31 -74.5q0 -41 -31 -73t-76 -32t-74.5 32t-29.5 73zM199 1102v270q0 35 18.5 49.5t50.5 14.5q33 0 52.5 -14.5t19.5 -49.5v-270l-27 -682q-2 -29 -13 -38t-34 -9q-20 0 -30.5 9t-12.5 38z" />
    <glyph glyph-name="quotedbl" unicode="&#x22;" horiz-adv-x="684" 
d="M84 1290v82q0 35 18 49.5t51 14.5t52.5 -13.5t19.5 -48.5v-82l-25 -274q-4 -29 -15 -38t-34 -9t-32 9t-13 38zM406 1290v82q0 35 18 49.5t51 14.5t52.5 -13.5t19.5 -48.5v-82l-25 -274q-4 -29 -15 -38t-34 -9t-32 9t-13 38z" />
    <glyph glyph-name="numbersign" unicode="#" horiz-adv-x="1306" 
d="M76 492q0 25 8 37t31 12h231l47 352h-278q-23 0 -31 13.5t-8 37.5q0 23 8 36t31 13h293l53 375q4 33 18.5 44t38.5 11q20 0 35.5 -12t11.5 -35l-53 -383h360l52 375q4 33 16 44t41 11q23 0 37 -12t10 -35l-53 -383h217q25 0 33 -13t8 -36q0 -25 -8 -38t-33 -13h-231
l-48 -352h279q25 0 33 -12.5t8 -36.5q0 -23 -8 -37.5t-33 -14.5h-295l-55 -399q-4 -33 -18.5 -44t-39.5 -11q-23 0 -37 11t-10 46l58 397h-361l-55 -399q-4 -33 -17.5 -44t-37.5 -11q-20 0 -37 11t-13 46l58 397h-217q-23 0 -31 14.5t-8 37.5zM449 541h360l49 352h-362z" />
    <glyph glyph-name="dollar" unicode="$" 
d="M86 227q0 23 24.5 41.5t41.5 18.5q18 0 29.5 -10.5t31.5 -28.5t49 -44t71 -49.5t98 -43t134 -25.5v573l-26 7q-102 25 -176 57.5t-121 75.5t-69.5 100t-22.5 135q0 72 27.5 134.5t80.5 111.5t130 80t177 37v121q0 35 12.5 48t40.5 13q29 0 42.5 -13.5t13.5 -47.5v-121
q92 -6 161.5 -27.5t122 -50.5t86 -58.5t52.5 -52.5q29 -39 28 -61q0 -23 -18.5 -40t-40.5 -17q-14 0 -27.5 6t-31.5 26q-18 18 -45 44t-66 49.5t-93 43t-128 25.5v-528l108 -27q82 -20 146.5 -49t109.5 -73t68.5 -103.5t23.5 -141.5q0 -92 -33.5 -161.5t-94 -117.5
t-144.5 -74.5t-184 -31.5v-102q0 -35 -13.5 -47t-42.5 -12t-41 12t-12 47v102q-90 6 -159.5 24.5t-122 44.5t-90 54.5t-64.5 53.5q-43 41 -43 73zM283 1040q0 -45 12 -82.5t44 -70.5t86 -59.5t140 -47.5v506q-82 -6 -136 -30.5t-87 -59.5t-46 -76t-13 -80zM674 84
q141 8 232 73.5t91 194.5q0 111 -69.5 173.5t-229.5 101.5l-24 6v-549z" />
    <glyph glyph-name="percent" unicode="%" horiz-adv-x="1933" 
d="M90 971q0 217 88 333.5t242 116.5q152 0 240 -115.5t88 -332.5t-88.5 -336t-239.5 -119q-160 0 -245 118t-85 335zM211 969q0 -166 50 -255t159 -89q104 0 155.5 90t51.5 256q0 160 -51.5 253t-155.5 93q-109 0 -159 -94.5t-50 -253.5zM565 8q0 16 10 37l668 1358
q16 33 39 33t48.5 -13.5t25.5 -33.5q0 -8 -2 -18.5t-11 -27.5l-663 -1343q-8 -16 -18.5 -25.5t-28.5 -9.5q-33 0 -50.5 13.5t-17.5 29.5zM1186 418q0 217 88 333.5t242 116.5q152 0 239.5 -115.5t87.5 -332.5t-88 -336t-239 -119q-160 0 -245 118t-85 335zM1307 416
q0 -166 50 -255t159 -89q104 0 155 90t51 256q0 160 -51 253t-155 93q-109 0 -159 -94.5t-50 -253.5z" />
    <glyph glyph-name="ampersand" unicode="&#x26;" horiz-adv-x="1400" 
d="M94 377q0 154 91 262.5t245 187.5q-37 49 -62.5 88t-43 75t-24.5 71t-7 78q0 68 24.5 123t69.5 94t105.5 59.5t132.5 20.5q90 0 152.5 -23.5t100 -62.5t55 -86t17.5 -95q0 -72 -26.5 -126t-73.5 -98t-110.5 -81t-137.5 -73q43 -53 85 -103.5t88 -101.5t99.5 -106.5
t120.5 -117.5q47 76 71 144.5t34 97.5q10 39 43 39q16 0 42.5 -11t26.5 -30q0 -16 -10 -53q-4 -14 -13 -42t-24.5 -63.5t-35 -76.5t-44.5 -80q45 -41 105.5 -93t138.5 -118q16 -14 20.5 -22.5t4.5 -18.5q0 -29 -18.5 -47.5t-41.5 -18.5q-10 0 -22 6.5t-23 14.5
q-66 51 -122 100t-113 100q-96 -104 -213 -163.5t-252 -59.5q-117 0 -203 32t-141 87t-83 130t-28 161zM219 379q0 -147 90 -227t240 -80q119 0 218 56t165 136q-115 111 -231.5 235.5t-208.5 245.5q-59 -33 -108.5 -69.5t-86.5 -80.5t-57.5 -97.5t-20.5 -118.5zM416 1137
q0 -72 34.5 -131.5t88.5 -133.5q57 29 110 57.5t94 62.5t66 75t25 90q0 31 -10.5 63.5t-34 59.5t-63.5 44t-99 17q-100 0 -155.5 -56t-55.5 -148z" />
    <glyph glyph-name="quotesingle" unicode="'" horiz-adv-x="358" 
d="M109 1290v82q0 35 18 49.5t51 14.5t52.5 -13.5t19.5 -48.5v-82l-25 -274q-4 -29 -15 -38t-34 -9t-32 9t-13 38z" />
    <glyph glyph-name="parenleft" unicode="(" horiz-adv-x="729" 
d="M131 643q0 160 36 298t98.5 253t147.5 206t183 156q31 20 55 21q16 0 29.5 -14.5t13.5 -32.5q0 -20 -24 -39q-121 -96 -200 -199.5t-125 -211t-65.5 -218t-19.5 -219.5t20.5 -221.5t67.5 -222t127 -214t201 -198.5q10 -8 18 -17.5t8 -19.5q0 -16 -14 -32.5t-31 -16.5
q-12 0 -24 6t-27 14q-102 61 -188 153.5t-150.5 209.5t-100.5 258t-36 301z" />
    <glyph glyph-name="parenright" unicode=")" horiz-adv-x="729" 
d="M27 -250q0 10 8 19.5t18 17.5q121 94 201 198.5t127 214t67.5 222t20.5 221.5t-19.5 219.5t-65.5 218t-125 211t-200 199.5q-25 18 -24 39q0 18 13 32.5t30 14.5q25 0 55 -21q98 -66 183 -156.5t147.5 -205.5t98.5 -253t36 -298t-36 -301t-100.5 -258t-150.5 -209
t-188 -154q-14 -8 -26.5 -14t-24.5 -6q-16 0 -30.5 16.5t-14.5 32.5z" />
    <glyph glyph-name="asterisk" unicode="*" horiz-adv-x="753" 
d="M45 1204q0 23 11.5 39.5t27.5 16.5q4 0 11 -2.5t11 -4.5l226 -82v246q0 23 15 31t32 8q16 0 31.5 -8t15.5 -31v-246l219 82q6 2 11.5 3t11.5 1q20 0 30.5 -18t10.5 -35q0 -29 -25 -37l-231 -84l149 -194q10 -14 10 -23q0 -18 -17 -32.5t-36 -14.5q-23 0 -33 17l-149 192
l-150 -192q-12 -18 -30 -19q-20 0 -38 14.5t-18 32.5q0 16 13 31l147 188l-231 84q-25 8 -25 37z" />
    <glyph glyph-name="plus" unicode="+" 
d="M174 694q0 27 9.5 42.5t35.5 15.5h348v370q0 33 19.5 44.5t42.5 11.5q27 0 43 -11.5t16 -44.5v-370h352q27 0 36 -15.5t9 -42.5q0 -29 -9 -43t-36 -14h-352v-371q0 -33 -16.5 -44t-42.5 -11q-23 0 -42.5 11t-19.5 44v371h-348q-27 0 -36 14.5t-9 42.5z" />
    <glyph glyph-name="comma" unicode="," horiz-adv-x="366" 
d="M94 106q0 41 26.5 68t69.5 27t75 -28.5t32 -102.5q0 -80 -29.5 -156t-77.5 -135q-14 -14 -24 -22.5t-27 -8.5q-16 0 -29.5 10.5t-13.5 22.5t6.5 21.5t16.5 25.5q29 35 48 75t28 99q-53 4 -77 36t-24 68z" />
    <glyph glyph-name="hyphen" unicode="-" horiz-adv-x="542" 
d="M49 528q0 63 53 64h336q55 0 56 -64q0 -66 -56 -65h-336q-53 0 -53 65z" />
    <glyph glyph-name="period" unicode="." horiz-adv-x="385" 
d="M94 86q0 41 29 72.5t70 31.5q39 0 68.5 -31.5t29.5 -72.5t-30 -71.5t-68 -30.5q-41 0 -70 30.5t-29 71.5z" />
    <glyph glyph-name="slash" unicode="/" horiz-adv-x="907" 
d="M29 29q0 16 20 55l717 1315q10 16 20.5 26.5t26.5 10.5q25 0 45.5 -14.5t20.5 -32.5q0 -10 -4.5 -22.5t-14.5 -33.5l-717 -1315q-10 -16 -19 -25t-26 -9q-27 0 -48 13t-21 32z" />
    <glyph glyph-name="zero" unicode="0" 
d="M102 711q0 350 137.5 530t385.5 180q250 0 386 -180t136 -530q0 -352 -136.5 -544t-385.5 -192q-248 0 -385.5 189.5t-137.5 546.5zM233 711q0 -139 25 -254t74 -198t121.5 -129t171.5 -46q98 0 171.5 45t123 128t74 198t24.5 256q0 135 -24.5 244.5t-74 188.5t-123 122
t-171.5 43t-171 -43t-122 -121t-74 -188.5t-25 -245.5z" />
    <glyph glyph-name="one" unicode="1" 
d="M246 51q0 53 41 53h309v1137q-27 -23 -86 -65.5t-117 -75.5q-59 -35 -88 -35q-25 0 -36 22.5t-11 45.5q0 14 6 24t29 21q27 14 62.5 34.5t72.5 44t72 48t63 49.5q20 16 35.5 24t48.5 8q72 0 72 -63v-1219h305q25 0 33 -14t8 -39t-8 -38t-33 -13h-737q-41 0 -41 51z" />
    <glyph glyph-name="two" unicode="2" 
d="M145 1092q0 16 7.5 37.5t17.5 37.5q14 29 45 73t84 84t129 68.5t178 28.5q197 0 312.5 -101t115.5 -298q0 -70 -17.5 -132.5t-49 -120.5t-79.5 -116.5t-110 -120.5q-96 -98 -207.5 -203.5t-257.5 -222.5h713q23 0 32 -15t9 -40q0 -51 -41 -51h-790q-37 0 -52.5 17.5
t-15.5 52.5q0 29 10 53t33 41q33 25 90 77t118.5 108.5t118 108.5t85.5 81q66 61 117 117.5t86.5 113.5t55 116.5t19.5 129.5q0 154 -81 224.5t-226 70.5q-86 0 -144.5 -25.5t-95.5 -62.5t-58.5 -77t-33.5 -67q-10 -25 -20.5 -31t-24.5 -6q-72 0 -72 50z" />
    <glyph glyph-name="three" unicode="3" 
d="M109 279q0 27 26.5 44t46.5 17q27 0 49 -41q12 -25 35 -61.5t65 -71.5t106.5 -59.5t156.5 -24.5q358 0 358 311q0 147 -97 213t-275 66h-23q-25 0 -33 15t-8 40t8 40t33 15h25q160 0 244.5 78t84.5 201q0 125 -77.5 188.5t-229.5 63.5q-88 0 -147.5 -24.5t-98.5 -57.5
t-58 -65.5t-28 -51.5q-10 -23 -20 -32t-27 -9q-35 0 -54 14.5t-19 38.5q0 16 8 36t16 32q12 20 41 58t80 76t129 65.5t186 27.5q205 0 315.5 -91t110.5 -255q0 -113 -63.5 -204t-186.5 -138q135 -29 215 -109.5t80 -234.5q0 -102 -37.5 -180t-102 -130t-150.5 -78t-185 -26
q-119 0 -202.5 28t-138 64.5t-84.5 73t-40 52.5q-16 25 -25 44t-9 42z" />
    <glyph glyph-name="four" unicode="4" 
d="M121 393q0 23 9 43.5t28 44.5l616 856q18 25 40 37t56 12q31 0 50.5 -13t19.5 -48v-895h143q25 0 33 -15.5t8 -37.5q0 -27 -8 -41t-33 -14h-143v-277q0 -35 -17.5 -47t-45.5 -12q-27 0 -41.5 12t-14.5 47v277h-626q-39 0 -56.5 19t-17.5 52zM252 430h569v803z" />
    <glyph glyph-name="five" unicode="5" 
d="M162 268q0 27 24.5 40.5t44.5 13.5q14 0 26.5 -9.5t23.5 -31.5q10 -23 29.5 -57t57.5 -66.5t96 -55t144 -22.5q92 0 159 28.5t110 81t64.5 124t21.5 159.5q0 188 -90.5 276.5t-235.5 88.5q-53 0 -98 -12.5t-80 -30t-61 -35t-40 -27.5q-23 -16 -43 -26.5t-45 -10.5
q-63 0 -63 60v8l31 555q2 35 20 51t47 16h670q25 0 33 -13t8 -40t-8.5 -42t-32.5 -15h-633l-25 -465q25 23 59 46.5t77 44t93 32.5t107 12q115 0 197 -36t135 -99t77.5 -149.5t24.5 -186.5q0 -123 -35.5 -216t-98 -156.5t-149.5 -95.5t-188 -32q-109 0 -182.5 24
t-122.5 55.5t-76.5 65.5t-41.5 56q-12 20 -21.5 43t-9.5 49z" />
    <glyph glyph-name="six" unicode="6" 
d="M154 618q0 158 22.5 303.5t82.5 256t164.5 177t268.5 66.5q78 0 137.5 -14t100.5 -32.5t65.5 -36t32.5 -23.5q25 -23 25 -49q0 -23 -14.5 -41.5t-37.5 -18.5t-41 11.5t-40 25.5q-35 23 -88.5 48.5t-147.5 25.5q-182 0 -284.5 -141.5t-110.5 -421.5q66 92 167 138t212 46
q217 0 333.5 -127t116.5 -346q0 -104 -31.5 -194.5t-92 -156t-147.5 -102.5t-196 -37q-260 0 -378.5 159t-118.5 484zM291 463q0 -72 21.5 -141.5t65.5 -124t110.5 -88t156.5 -33.5q92 0 158.5 31.5t109.5 86t62.5 124t19.5 143.5q0 80 -18.5 147.5t-60.5 116.5t-108.5 77.5
t-162.5 28.5q-92 0 -159.5 -28.5t-110.5 -78.5t-63.5 -117.5t-20.5 -143.5z" />
    <glyph glyph-name="seven" unicode="7" 
d="M145 1120v201q0 35 18.5 50t47.5 15h872q66 0 66 -69q0 -25 -7 -51.5t-28 -61.5q-74 -129 -145.5 -273.5t-141 -296t-134.5 -307t-124 -311.5q-10 -31 -34 -30q-27 0 -55.5 10t-28.5 33q0 12 6 29.5t12 31.5q57 137 112.5 272.5t119 278.5t139 299t174.5 332h-760v-152
q0 -29 -15.5 -38t-39.5 -9q-25 0 -39.5 9.5t-14.5 37.5z" />
    <glyph glyph-name="eight" unicode="8" 
d="M119 369q0 135 77.5 231t231.5 137q-127 41 -189.5 126t-62.5 192q0 100 41 169.5t105.5 113.5t144.5 63.5t156 19.5q78 0 156.5 -17.5t143 -58t105.5 -107.5t41 -165q0 -117 -68.5 -204t-183.5 -132q141 -27 225 -123t84 -233q0 -72 -25.5 -144.5t-85 -131t-155.5 -94.5
t-237 -36t-238.5 35t-156 90.5t-84 126t-25.5 142.5zM246 375q0 -86 32.5 -143.5t86 -92.5t121 -50t137.5 -15q68 0 135 16t121.5 52t87 94.5t32.5 144.5q0 82 -32.5 139.5t-85 94t-121 53t-137.5 16.5q-70 0 -137.5 -17.5t-121 -55.5t-86 -96t-32.5 -140zM297 1057
q0 -70 29.5 -120t76 -84t104.5 -50.5t116 -16.5q57 0 116.5 16.5t105.5 50.5t75.5 85t29.5 121q0 49 -16 96t-54 84t-101.5 60.5t-155.5 23.5t-154.5 -23.5t-100.5 -61.5t-54.5 -85t-16.5 -96z" />
    <glyph glyph-name="nine" unicode="9" 
d="M137 932q0 104 32 194.5t92.5 156t147.5 102t195 36.5q258 0 377 -161.5t119 -489.5q0 -158 -22.5 -301t-82 -253t-164 -175.5t-268.5 -65.5q-78 0 -137 12.5t-100 30t-65.5 34t-33.5 22.5q-25 23 -24 49q0 23 16.5 43t38.5 20q23 0 40 -12t40 -27q35 -23 85 -45t148 -22
q182 0 284.5 137t111.5 418q-66 -92 -167.5 -138t-211.5 -46q-109 0 -192 33.5t-141 97t-88 152.5t-30 198zM260 936q0 -80 18.5 -148.5t60.5 -121t108.5 -82t162.5 -29.5q92 0 159 30.5t110 83t62.5 121t19.5 144.5q0 72 -20.5 141.5t-63.5 123.5t-110 88t-157 34
q-92 0 -158.5 -32t-109.5 -86t-62.5 -123.5t-19.5 -143.5z" />
    <glyph glyph-name="colon" unicode=":" horiz-adv-x="385" 
d="M94 86q0 41 29 72.5t70 31.5q39 0 68.5 -31.5t29.5 -72.5t-30 -71.5t-68 -30.5q-41 0 -70 30.5t-29 71.5zM94 881q0 41 29 72.5t70 31.5q39 0 68.5 -31.5t29.5 -72.5t-30 -71.5t-68 -30.5q-41 0 -70 30.5t-29 71.5z" />
    <glyph glyph-name="semicolon" unicode=";" horiz-adv-x="372" 
d="M98 106q0 41 26.5 68t69.5 27t75 -28.5t32 -102.5q0 -80 -29.5 -156t-77.5 -135q-14 -14 -24 -22.5t-27 -8.5q-16 0 -29.5 10.5t-13.5 22.5t6.5 21.5t16.5 25.5q29 35 48 75t28 99q-53 4 -77 36t-24 68zM98 881q0 41 29 72.5t70 31.5q39 0 68.5 -31.5t29.5 -72.5
t-30 -71.5t-68 -30.5q-41 0 -70 30.5t-29 71.5z" />
    <glyph glyph-name="less" unicode="&#x3c;" 
d="M172 705q0 23 7 39t30 26l795 395q16 8 24 10.5t14 2.5q16 0 30.5 -25t14.5 -53q0 -23 -28 -39l-731 -359l731 -354q31 -14 31 -39q0 -29 -14.5 -54.5t-31.5 -25.5q-8 0 -16 2t-24 11l-795 397q-37 20 -37 66z" />
    <glyph glyph-name="equal" unicode="=" 
d="M174 485q0 27 9.5 41.5t35.5 14.5h821q27 0 36 -14.5t9 -41.5q0 -29 -9 -43t-36 -14h-821q-27 0 -36 14.5t-9 42.5zM174 924q0 27 9.5 42t35.5 15h821q27 0 36 -15.5t9 -41.5q0 -29 -9 -43.5t-36 -14.5h-821q-27 0 -36 14.5t-9 43.5z" />
    <glyph glyph-name="greater" unicode="&#x3e;" 
d="M172 309q0 25 31 39l731 354l-731 359q-29 16 -29 39q0 29 14.5 53.5t30.5 24.5q6 0 14.5 -2t24.5 -11l795 -395q23 -10 30 -26.5t7 -38.5q0 -45 -37 -66l-795 -397q-16 -8 -24.5 -10.5t-16.5 -2.5q-16 0 -30.5 26t-14.5 54z" />
    <glyph glyph-name="question" unicode="?" horiz-adv-x="1089" 
d="M100 1118q0 31 25 84q12 25 38.5 67t78 84t128 72.5t187.5 30.5q94 0 174 -22.5t137.5 -68.5t89 -115.5t31.5 -162.5q0 -76 -20.5 -133t-54 -102t-75.5 -81t-85 -66q-53 -39 -87 -70t-52.5 -58.5t-25.5 -58.5t-7 -69q0 -33 -13.5 -44.5t-40.5 -11.5q-25 0 -41 11.5
t-16 44.5v24q0 57 16.5 101t44 79t62.5 62.5t70 54.5q39 29 73.5 57.5t62 65.5t44 83t16.5 107q0 137 -88 200t-225 63q-88 0 -147.5 -27t-96.5 -64.5t-56.5 -77.5t-27.5 -67q-8 -29 -23.5 -35t-31.5 -6q-23 0 -43.5 13.5t-20.5 35.5zM408 70q0 43 29.5 74.5t74.5 31.5
t75.5 -31.5t30.5 -74.5q0 -41 -30.5 -73t-75.5 -32t-74.5 32t-29.5 73z" />
    <glyph glyph-name="at" unicode="@" horiz-adv-x="1896" 
d="M100 418q0 193 64.5 352.5t178.5 275t268.5 179t336.5 63.5q193 0 349.5 -63.5t267 -171t171 -249.5t60.5 -302q0 -170 -40 -274.5t-100.5 -162t-128 -78t-122.5 -20.5q-84 0 -142.5 38t-68.5 132q-53 -92 -131 -131t-170 -39q-90 0 -160.5 34t-120 95.5t-76 148.5
t-26.5 193q0 100 27.5 185.5t79 146.5t124 96t160.5 35q115 0 184.5 -54t116.5 -128v96q0 31 14.5 42t36.5 11q27 0 41.5 -11t14.5 -42v-629q0 -45 22.5 -81.5t89.5 -36.5q45 0 91.5 20.5t83 70.5t59 134t22.5 213q0 125 -51 245.5t-146.5 214t-229.5 151t-302 57.5
q-152 0 -282.5 -54.5t-227 -154t-151 -238.5t-54.5 -311t61.5 -311.5t169 -237.5t253 -151.5t313.5 -53.5q135 0 215 18.5t109 28.5q33 10 44 12.5t21 2.5q23 -2 32 -25t9 -41q0 -39 -35 -51q-29 -10 -132 -34t-277 -24q-195 0 -362 59.5t-289.5 171t-193.5 272.5t-71 366z
M641 438q0 -72 13.5 -137t45 -115.5t83 -80t128.5 -29.5q68 0 120 25.5t88 72.5t54.5 112.5t18.5 145.5q0 72 -19.5 137.5t-54.5 115.5t-86 80t-114 30q-78 0 -130.5 -28t-85 -77t-47 -113.5t-14.5 -138.5z" />
    <glyph glyph-name="A" unicode="A" horiz-adv-x="1355" 
d="M41 35q0 4 1 11t7 22l547 1314q23 53 86 54q31 0 48.5 -12.5t25.5 -30.5l549 -1319q10 -27 10 -37q0 -27 -23.5 -39t-46.5 -12t-34 11t-17 26l-168 399h-698l-172 -402q-17 -34 -50 -34q-27 0 -46 11t-19 38zM375 528h604l-301 770z" />
    <glyph glyph-name="B" unicode="B" horiz-adv-x="1269" 
d="M170 66v1290q0 35 18.5 50t47.5 15h376q276 0 405.5 -85t129.5 -277q0 -125 -63.5 -205t-184.5 -119q86 -18 143.5 -52t92 -79t49 -99t14.5 -114q0 -391 -526 -391h-436q-29 0 -47.5 15.5t-18.5 50.5zM293 113h371q217 0 309 67.5t92 206.5q0 70 -20.5 123t-70.5 87
t-132 51.5t-205 17.5h-344v-553zM293 776h295q219 0 323.5 63.5t104.5 200.5q0 70 -20.5 120t-67.5 83t-126 49.5t-196 16.5h-313v-533z" />
    <glyph glyph-name="C" unicode="C" horiz-adv-x="1404" 
d="M104 707q0 170 47.5 308t134.5 236.5t209.5 151.5t272.5 53q98 0 174 -21.5t131 -51t91 -61.5t55 -50q35 -41 64.5 -93.5t29.5 -93.5q0 -33 -26.5 -44t-43.5 -11q-31 0 -51 41q-23 45 -57.5 93t-85 86t-119 62.5t-160.5 24.5q-129 0 -227.5 -46t-166 -130t-101 -199.5
t-33.5 -254.5q0 -137 33.5 -252t101 -198t166 -129t227.5 -46q104 0 178 30.5t123 73.5t79 88t44 76q27 55 59 56q18 0 44 -12.5t26 -43.5q0 -41 -29.5 -93t-64.5 -93q-16 -18 -50 -51t-91.5 -66t-136.5 -57.5t-183 -24.5q-158 0 -280.5 52.5t-207.5 148.5t-130.5 233.5
t-45.5 307.5z" />
    <glyph glyph-name="D" unicode="D" horiz-adv-x="1439" 
d="M170 66v1290q0 65 66 65h2h395q158 0 288 -43t222 -130t143 -221t51 -318q0 -182 -51 -315.5t-143 -220.5t-222 -130t-288 -43h-395q-68 0 -68 66zM295 113h323q131 0 239 35.5t183.5 109.5t117.5 186.5t42 264.5q0 154 -43 266t-119.5 186t-183 111t-236.5 37h-323
v-1196z" />
    <glyph glyph-name="E" unicode="E" horiz-adv-x="1206" 
d="M170 66v1290q0 65 64 65h2h839q47 0 47 -55q0 -57 -47 -57h-780v-527h739q47 0 47 -55q0 -57 -47 -57h-739v-557h780q47 0 47 -56q0 -57 -47 -57h-839q-66 0 -66 66z" />
    <glyph glyph-name="F" unicode="F" horiz-adv-x="1128" 
d="M170 47v1309q0 65 64 65h2h796q47 0 47 -55q0 -57 -47 -57h-737v-529h676q47 0 47 -55q0 -57 -47 -57h-676v-621q0 -35 -17.5 -48t-46.5 -13t-45 13t-16 48z" />
    <glyph glyph-name="G" unicode="G" horiz-adv-x="1470" 
d="M104 696q0 145 38 282.5t119 243t210 170t311 64.5q135 0 252 -46t195 -134q35 -41 60.5 -83t25.5 -79q0 -33 -24.5 -43t-43.5 -10q-35 0 -59 45q-70 119 -168 176t-238 57q-121 0 -220 -39.5t-171 -119.5t-110.5 -201t-38.5 -283q0 -305 126 -461.5t380 -156.5
q86 0 172 33.5t154.5 100.5t111.5 167t43 233h-375q-45 0 -45 58q0 55 45 55h434q29 0 47.5 -15.5t18.5 -50.5v-626q0 -27 -19.5 -37t-44.5 -10t-42 10t-19 37v205q-25 -45 -68 -93.5t-104.5 -88.5t-145.5 -65.5t-190 -25.5q-152 0 -267.5 50.5t-193.5 145.5t-117 230
t-39 305z" />
    <glyph glyph-name="H" unicode="H" horiz-adv-x="1454" 
d="M170 47v1327q0 35 16.5 48.5t46.5 13.5q29 0 45.5 -13.5t16.5 -48.5v-561h864v561q0 35 16.5 48.5t45.5 13.5t46 -13.5t17 -48.5v-1327q0 -35 -17.5 -48t-45.5 -13q-29 0 -45.5 13t-16.5 48v653h-864v-653q0 -35 -16.5 -48t-45.5 -13q-31 0 -47 13t-16 48z" />
    <glyph glyph-name="I" unicode="I" horiz-adv-x="462" 
d="M170 47v1327q0 35 16.5 48.5t44.5 13.5q29 0 45.5 -13.5t16.5 -48.5v-1327q0 -35 -16.5 -48t-45.5 -13t-45 13t-16 48z" />
    <glyph glyph-name="J" unicode="J" horiz-adv-x="1081" 
d="M61 287q4 33 29 44t45 11q37 0 58 -63q10 -31 29.5 -67t53 -65.5t86 -50t130.5 -20.5q172 0 241.5 90t69.5 274v934q0 35 16.5 48.5t44.5 13.5q29 0 45.5 -13.5t16.5 -48.5v-952q0 -231 -105.5 -344t-333.5 -113q-104 0 -177.5 25.5t-122 63.5t-75 83t-38.5 82
q-8 20 -10.5 35.5t-2.5 32.5z" />
    <glyph glyph-name="K" unicode="K" horiz-adv-x="1300" 
d="M170 47v1327q0 35 16.5 48.5t46.5 13.5q29 0 45.5 -13.5t16.5 -48.5v-694l770 729q27 27 47 27q25 0 43.5 -19.5t18.5 -40.5q0 -10 -6.5 -22.5t-24.5 -28.5l-492 -473l592 -764q10 -10 13.5 -21.5t3.5 -19.5q0 -27 -19.5 -43t-44.5 -16q-20 0 -34.5 10t-28.5 27l-582 739
l-256 -238v-479q0 -35 -16.5 -48t-45.5 -13q-31 0 -47 13t-16 48z" />
    <glyph glyph-name="L" unicode="L" horiz-adv-x="1122" 
d="M170 66v1308q0 35 16.5 48.5t44.5 13.5q29 0 45.5 -13.5t16.5 -48.5v-1261h739q47 0 47 -56q0 -57 -47 -57h-796q-66 0 -66 66z" />
    <glyph glyph-name="M" unicode="M" horiz-adv-x="1769" 
d="M170 43v1309q0 47 23.5 65.5t66.5 18.5q41 0 63.5 -14.5t38.5 -51.5l527 -1210l512 1198q16 35 39.5 56.5t70.5 21.5q41 0 64.5 -18.5t23.5 -65.5v-1309q0 -33 -15 -45t-42 -12q-29 0 -45 12t-16 45v1212l-514 -1192q-10 -25 -31 -41t-51 -16q-33 0 -51.5 16.5
t-28.5 40.5l-518 1178v-1198q0 -33 -15.5 -45t-44.5 -12t-43 12t-14 45z" />
    <glyph glyph-name="N" unicode="N" horiz-adv-x="1449" 
d="M170 43v1327q0 37 21.5 51.5t56.5 14.5q37 0 56.5 -14.5t47.5 -55.5l809 -1198v1210q0 33 15.5 45.5t44.5 12.5t44 -12.5t15 -45.5v-1327q0 -37 -21.5 -51t-58.5 -14q-39 0 -61.5 19.5t-44.5 49.5l-805 1194v-1206q0 -33 -15.5 -45t-44.5 -12t-44 12t-15 45z" />
    <glyph glyph-name="O" unicode="O" horiz-adv-x="1548" 
d="M104 713q0 174 48.5 311t136.5 233.5t212 147.5t273 51q150 0 272.5 -51t211 -147.5t137.5 -233.5t49 -311t-49 -312.5t-137.5 -235.5t-211 -148.5t-272.5 -51.5t-273.5 51.5t-211.5 148.5t-136.5 235.5t-48.5 312.5zM242 713q0 -143 33.5 -259t101 -199t167 -128
t230.5 -45t230.5 45t167 128t101.5 198.5t34 259.5q0 141 -34 256.5t-101.5 197.5t-167 127t-230.5 45t-230.5 -45t-167 -127t-101 -197.5t-33.5 -256.5z" />
    <glyph glyph-name="P" unicode="P" horiz-adv-x="1226" 
d="M170 47v1309q0 65 64 65h2h378q274 0 402.5 -108.5t128.5 -308.5q0 -55 -19.5 -128t-75 -136.5t-154.5 -107.5t-259 -44h-342v-541q0 -35 -18.5 -48t-47.5 -13t-44 13t-15 48zM295 696h295q121 0 201.5 22.5t129 62.5t68 97.5t19.5 125.5t-19.5 124t-65.5 98t-123 64.5
t-192 22.5h-313v-617z" />
    <glyph glyph-name="Q" unicode="Q" horiz-adv-x="1548" 
d="M104 711q0 174 48.5 312t136.5 234.5t212 147.5t273 51q150 0 272.5 -51t211 -147.5t137.5 -234.5t49 -312q0 -221 -78 -382t-213 -253l127 -197q20 -33 20 -47q0 -23 -21.5 -38t-41.5 -15q-14 0 -22.5 8t-24.5 31l-131 205q-133 -57 -285 -58q-150 0 -273.5 51.5
t-211.5 147.5t-136.5 234.5t-48.5 312.5zM242 711q0 -143 33.5 -259t101 -198t167 -127t230.5 -45q61 0 115.5 10t101.5 29l-104 172q-23 37 -23 53q0 23 22.5 38t41.5 15q14 0 23.5 -7t23.5 -30l115 -186q106 80 161.5 216t55.5 319q0 141 -34 257.5t-101.5 198.5t-167 127
t-230.5 45t-230.5 -45t-167 -127t-101 -198.5t-33.5 -257.5z" />
    <glyph glyph-name="R" unicode="R" horiz-adv-x="1261" 
d="M170 47v1309q0 35 18.5 50t49.5 15h383q276 0 401 -99t125 -300q0 -45 -11.5 -98.5t-42 -104.5t-87 -96t-146.5 -74l301 -563q10 -16 12.5 -26.5t2.5 -18.5q0 -27 -20.5 -41t-49.5 -14q-20 0 -33.5 12t-30.5 43l-311 586h-436v-580q0 -35 -18.5 -48t-47.5 -13t-44 13
t-15 48zM295 735h336q106 0 179 18.5t117 55.5t63.5 90t19.5 123q0 68 -19.5 122t-65.5 91t-123 57.5t-194 20.5h-313v-578z" />
    <glyph glyph-name="S" unicode="S" horiz-adv-x="1247" 
d="M92 217q0 23 23.5 41t40.5 18q18 0 29.5 -10t31.5 -28q25 -23 57.5 -50.5t83 -53t120 -43t167.5 -17.5q76 0 141.5 17.5t113.5 53t74.5 88t26.5 119.5q0 111 -69.5 185.5t-229.5 113.5l-159 39q-102 25 -176 58.5t-121 79.5t-69.5 106.5t-22.5 140.5q0 76 28.5 145.5
t87 122t147.5 83t208 30.5q111 0 191.5 -20.5t137 -50t92 -62.5t54.5 -57q28 -38 28 -60q0 -25 -18 -42t-41 -17q-14 0 -28.5 5t-30.5 28q-16 20 -45 47.5t-75 54.5t-112.5 45.5t-159.5 18.5q-96 0 -160.5 -26t-102.5 -64.5t-53 -85t-15 -87.5q0 -47 12 -88t45 -75.5
t89 -64.5t142 -50l211 -51q166 -41 257.5 -134.5t91.5 -257.5q0 -96 -37 -170.5t-103.5 -125t-159 -76t-202.5 -25.5q-115 0 -199 19.5t-145.5 47t-100 59.5t-59.5 54q-23 23 -30 39.5t-7 32.5z" />
    <glyph glyph-name="T" unicode="T" horiz-adv-x="1210" 
d="M20 1366q0 55 48 55h1073q29 0 39 -14t10 -41q0 -29 -10.5 -43t-38.5 -14h-475v-1262q0 -35 -16.5 -48t-45.5 -13t-45 13t-16 48v1262h-475q-47 0 -48 57z" />
    <glyph glyph-name="U" unicode="U" horiz-adv-x="1433" 
d="M160 512v862q0 35 16.5 48.5t46.5 13.5q29 0 45.5 -13.5t16.5 -48.5v-846q0 -217 108.5 -332.5t308.5 -115.5q215 0 331 106.5t116 331.5v856q0 35 15.5 48.5t43.5 13.5q31 0 48.5 -13.5t17.5 -48.5v-862q0 -262 -143.5 -404.5t-421.5 -142.5q-272 0 -410.5 138.5
t-138.5 408.5z" />
    <glyph glyph-name="V" unicode="V" horiz-adv-x="1298" 
d="M51 1380q0 27 24.5 41.5t53.5 14.5q31 0 43 -35l477 -1260l481 1260q12 35 44 35q27 0 50 -12.5t23 -37.5q0 -10 -6 -27.5t-14 -37.5l-504 -1296q-14 -39 -76 -39q-35 0 -52 10t-26 31l-497 1286q-8 18 -14.5 35.5t-6.5 31.5z" />
    <glyph glyph-name="W" unicode="W" horiz-adv-x="1912" 
d="M61 1384q0 27 25 39.5t55 12.5q29 0 41 -37l348 -1252l357 1237q16 51 71 52q31 0 47.5 -12.5t24.5 -37.5l356 -1239l349 1252q8 37 45 37q27 0 49 -11.5t22 -38.5q0 -16 -5 -36.5t-11 -38.5l-369 -1274q-16 -51 -80 -51q-66 0 -83 61l-349 1186l-346 -1196
q-8 -25 -30.5 -38t-53.5 -13q-33 0 -54 13t-32 48l-364 1270q-4 16 -8.5 35.5t-4.5 31.5z" />
    <glyph glyph-name="X" unicode="X" horiz-adv-x="1267" 
d="M43 37q0 14 6 25.5t14 21.5l496 651l-450 594q-10 12 -17.5 27.5t-7.5 25.5q0 27 22.5 41.5t43.5 14.5q16 0 30.5 -9.5t24.5 -23.5l432 -574l440 578q12 16 22.5 22.5t24.5 6.5q18 0 40 -14.5t22 -41.5q0 -23 -25 -53l-450 -588l485 -643q29 -37 29 -57q0 -23 -21.5 -39
t-44.5 -16q-14 0 -26.5 7t-30.5 30l-469 618l-479 -629q-12 -16 -25.5 -21t-24.5 -5q-23 0 -42 14t-19 37z" />
    <glyph glyph-name="Y" unicode="Y" horiz-adv-x="1220" 
d="M35 1376q0 27 20.5 43.5t42.5 16.5q27 0 45 -27l473 -641l457 633q23 35 51 35q18 0 40 -12.5t22 -39.5q0 -10 -6 -25.5t-17 -29.5l-489 -676v-606q0 -35 -16.5 -48t-45.5 -13t-46 13t-17 48v610l-492 668q-8 10 -15 24.5t-7 26.5z" />
    <glyph glyph-name="Z" unicode="Z" horiz-adv-x="1177" 
d="M53 68q0 37 41 92l864 1149h-808q-47 0 -48 57q0 55 48 55h894q68 0 68 -67q0 -39 -41 -92l-866 -1149h872q47 0 47 -56q0 -57 -47 -57h-956q-68 0 -68 68z" />
    <glyph glyph-name="bracketleft" unicode="[" horiz-adv-x="559" 
d="M170 -211v1657q0 35 18.5 50t49.5 15h245q37 0 37 -49q0 -23 -8 -37t-29 -14h-196v-1587h196q37 0 37 -51q0 -23 -8 -37.5t-29 -14.5h-245q-31 0 -49.5 16.5t-18.5 51.5z" />
    <glyph glyph-name="backslash" unicode="\" horiz-adv-x="907" 
d="M29 1389q0 18 20.5 32.5t44.5 14.5q16 0 26.5 -10.5t20.5 -26.5l717 -1315q20 -39 21 -55q0 -18 -21.5 -31.5t-48.5 -13.5q-16 0 -25.5 9t-19.5 25l-717 1315q-10 20 -14 32.5t-4 23.5z" />
    <glyph glyph-name="bracketright" unicode="]" horiz-adv-x="559" 
d="M39 -227q0 51 37 51h196v1587h-196q-20 0 -28.5 14.5t-8.5 36.5q0 49 37 49h246q31 0 49 -15t18 -50v-1657q0 -35 -18.5 -51.5t-48.5 -16.5h-246q-20 0 -28.5 14.5t-8.5 37.5z" />
    <glyph glyph-name="asciicircum" unicode="^" horiz-adv-x="956" 
d="M86 729q0 14 16 45l299 600q12 25 30 36t48 11q33 0 51.5 -12t28.5 -35l299 -600q10 -16 12 -26.5t2 -18.5q0 -23 -19 -36t-42 -13t-32 10t-17 27l-283 571l-282 -571q-8 -16 -17.5 -26.5t-32.5 -10.5t-42 13.5t-19 35.5z" />
    <glyph glyph-name="underscore" unicode="_" horiz-adv-x="995" 
d="M6 -383q0 23 8.5 37t32.5 14h901q25 0 33 -14t8 -37q0 -25 -8 -39t-33 -14h-901q-25 0 -33 14t-8 39z" />
    <glyph glyph-name="grave" unicode="`" horiz-adv-x="765" 
d="M184 1464q0 27 19.5 48.5t54.5 21.5q23 0 41 -15.5t47 -50.5l156 -190q20 -23 20 -47q0 -16 -12 -27.5t-31 -11.5q-23 0 -38 10t-31 27l-187 166q-16 16 -27.5 33.5t-11.5 35.5z" />
    <glyph glyph-name="a" unicode="a" horiz-adv-x="1122" 
d="M102 268q0 76 28 139.5t96.5 109.5t184 72.5t294.5 28.5l147 3v67q0 135 -68.5 201.5t-222.5 66.5q-61 0 -106 -12t-79 -30.5t-57.5 -40t-42.5 -39.5q-20 -20 -32.5 -27.5t-24.5 -7.5q-23 0 -40 13t-17 36q0 18 9 34.5t34 39.5q41 41 89 68.5t95 43t90 21.5t78 6
q113 0 191.5 -27.5t127 -76t70 -112t21.5 -132.5v-682q0 -45 -60 -45q-41 0 -49 20.5t-8 56.5v127q-29 -41 -67 -77.5t-87 -65.5t-111.5 -45t-140.5 -16q-178 0 -260 77.5t-82 204.5zM227 279q0 -98 55.5 -145.5t186.5 -47.5q55 0 106.5 15.5t96.5 40t79.5 58t59.5 70.5
q41 66 41 160v90l-154 -2q-145 -2 -236 -19.5t-143.5 -48t-72 -74.5t-19.5 -97z" />
    <glyph glyph-name="b" unicode="b" horiz-adv-x="1189" 
d="M156 41v1333q0 35 14 48.5t43 13.5t44 -13.5t15 -48.5v-514q59 84 151.5 141.5t231.5 57.5q104 0 186.5 -40t138.5 -111.5t86 -171t30 -220.5t-30 -221t-88 -173t-142 -114t-193 -41q-127 0 -223 50.5t-152 160.5v-137q0 -33 -16 -44t-43 -11t-40 11t-13 44zM266 518
q0 -96 22.5 -177t67.5 -140.5t110.5 -92t151.5 -32.5q84 0 150 31.5t110 89t66.5 137.5t22.5 176q0 98 -21.5 178t-64.5 138.5t-106.5 90t-147.5 31.5q-172 0 -266.5 -112.5t-94.5 -317.5z" />
    <glyph glyph-name="c" unicode="c" horiz-adv-x="1036" 
d="M90 516q0 121 32 221.5t93 172t149.5 111.5t202.5 40q86 0 150.5 -21.5t110.5 -53.5t76 -69.5t46 -70.5q6 -16 11.5 -27.5t5.5 -27.5q0 -27 -20.5 -43.5t-43.5 -16.5q-14 0 -25.5 6t-25.5 35q-8 14 -25.5 44t-51.5 59.5t-84 51t-124 21.5q-176 0 -262 -115.5t-86 -314.5
q0 -203 86 -322.5t262 -119.5q68 0 116 18.5t80 43t50 52t31 46.5q18 33 29.5 43t27.5 10q23 0 43.5 -16.5t20.5 -39.5q0 -20 -15 -47q-12 -20 -38.5 -57t-72.5 -74t-114 -63.5t-158 -26.5q-123 0 -213 40t-148.5 112.5t-87 174t-28.5 224.5z" />
    <glyph glyph-name="d" unicode="d" horiz-adv-x="1187" 
d="M92 516q0 121 31 221.5t89 172t144 111.5t195 40q131 0 218 -52.5t146 -136.5v502q0 35 15.5 48.5t44.5 13.5t43 -13.5t14 -48.5v-1333q0 -33 -13 -44t-40 -11t-43 11t-16 44v137q-55 -111 -151.5 -162t-223.5 -51q-109 0 -193 41t-142 115t-88 174t-30 221zM221 510
q0 -96 22.5 -177t66.5 -138.5t109.5 -89t149.5 -31.5q86 0 151.5 33.5t111 93t68 140.5t22.5 177q0 205 -98.5 318.5t-266.5 113.5q-84 0 -147.5 -31.5t-105.5 -90t-62.5 -139.5t-20.5 -179z" />
    <glyph glyph-name="e" unicode="e" horiz-adv-x="1116" 
d="M90 514q0 119 34 220.5t97.5 173t152.5 112.5t199 41q113 0 199 -40t144.5 -108.5t88 -162t29.5 -199.5q0 -27 -15 -38t-40 -11h-764q4 -205 97.5 -317.5t267.5 -112.5q70 0 117.5 15t81.5 39t56.5 51.5t38.5 51.5q12 16 20.5 24.5t25.5 8.5q20 0 40.5 -12t20.5 -35
q0 -25 -20 -53q-18 -29 -48 -62.5t-76 -63.5t-109.5 -50.5t-147.5 -20.5q-121 0 -212.5 40t-152.5 112.5t-93 173t-32 223.5zM219 598h696q-6 72 -29.5 136.5t-65.5 113.5t-103.5 78.5t-145.5 29.5t-147.5 -28.5t-106.5 -77.5t-67.5 -114.5t-30.5 -137.5z" />
    <glyph glyph-name="f" unicode="f" horiz-adv-x="606" 
d="M31 973q0 25 8 39t33 14h131v158q0 121 74.5 196.5t216.5 75.5q39 0 77.5 -7t67.5 -19.5t47.5 -30t18.5 -37.5q0 -27 -11.5 -43t-27.5 -16q-12 0 -27.5 7t-34.5 17q-23 12 -48.5 22.5t-66.5 10.5q-72 0 -121 -41t-49 -150v-143h224q41 0 41 -53q0 -51 -41 -51h-224v-877
q0 -35 -15 -47t-44 -12t-43 12t-14 47v877h-131q-25 0 -33 14t-8 37z" />
    <glyph glyph-name="g" unicode="g" horiz-adv-x="1189" 
d="M94 516q0 121 31 221.5t89 172t144 111.5t195 40q131 0 219 -52.5t146 -140.5v113q0 35 15 48t44 13t43 -13t14 -48v-995q0 -221 -127 -332t-340 -111q-84 0 -157.5 16.5t-124.5 39.5q-47 20 -76 40.5t-29 53.5q0 25 16.5 47t39.5 22q18 0 38.5 -13t47.5 -28
q43 -25 102 -47t145 -22q70 0 132.5 18.5t110.5 59.5t75.5 106.5t27.5 159.5v182q-55 -111 -148 -160t-220 -49q-109 0 -193 41t-142 113t-88 172t-30 221zM223 510q0 -96 22.5 -176t66.5 -137.5t109.5 -88t149.5 -30.5q86 0 151.5 32.5t111 91t68 139.5t22.5 177
q0 205 -98.5 318.5t-266.5 113.5q-84 0 -147.5 -31.5t-105.5 -90t-62.5 -139.5t-20.5 -179z" />
    <glyph glyph-name="h" unicode="h" horiz-adv-x="1171" 
d="M156 45v1335q0 33 17 44.5t42 11.5q27 0 44 -11.5t17 -44.5v-571q12 27 38 70t72 84t114.5 69.5t163.5 28.5q158 0 255 -87t97 -272v-667q0 -49 -55 -49q-63 0 -64 49v622q0 139 -56.5 213t-201.5 74q-96 0 -166 -41t-114 -105.5t-64.5 -145.5t-20.5 -158v-449
q0 -35 -15 -47t-44 -12t-44 12t-15 47z" />
    <glyph glyph-name="i" unicode="i" horiz-adv-x="432" 
d="M131 1346q0 45 24.5 67.5t59.5 22.5t59.5 -22.5t24.5 -67.5q0 -43 -24.5 -66t-59.5 -23t-59.5 23t-24.5 66zM158 45v936q0 35 14 47t43 12t44 -12t15 -47v-936q0 -35 -15 -47t-44 -12t-43 12t-14 47z" />
    <glyph glyph-name="j" unicode="j" horiz-adv-x="432" 
d="M-236 -367q0 25 16.5 46.5t33.5 21.5q12 0 22 -4t27 -12q27 -14 55.5 -24.5t71.5 -10.5q76 0 122 41t46 149v1141q0 35 14 47t43 12t44 -12t15 -47v-1163q0 -123 -69.5 -199t-208.5 -76q-45 0 -88 6.5t-76 20.5q-68 29 -68 63zM127 1346q0 45 24.5 67.5t59.5 22.5
t59.5 -22.5t24.5 -67.5q0 -43 -24.5 -66t-59.5 -23t-59.5 23t-24.5 66z" />
    <glyph glyph-name="k" unicode="k" horiz-adv-x="1054" 
d="M156 45v1350q0 35 15 48t44 13t44 -13t15 -48v-838l566 469q23 16 43 16q23 0 38 -18t15 -37q0 -25 -23 -41l-323 -270l397 -596q16 -25 17 -39q0 -25 -25 -40t-47 -15q-27 0 -49 34l-387 584l-222 -184v-375q0 -35 -15 -47t-44 -12t-44 12t-15 47z" />
    <glyph glyph-name="l" unicode="l" horiz-adv-x="428" 
d="M156 45v1350q0 35 14 48t43 13t44 -13t15 -48v-1350q0 -35 -15 -47t-44 -12t-43 12t-14 47z" />
    <glyph glyph-name="m" unicode="m" horiz-adv-x="1781" 
d="M156 45v940q0 33 15 44t40 11q27 0 43 -11t16 -44v-186q12 27 35 71.5t64 86.5t105.5 73t158.5 31q111 0 192.5 -62.5t106.5 -197.5q12 29 37.5 73t70.5 85.5t112 71.5t159 30q68 0 125 -21.5t99 -65.5t66.5 -111.5t24.5 -160.5v-667q0 -49 -55 -49q-63 0 -64 49v622
q0 141 -50 214t-167 73q-90 0 -154.5 -40t-106.5 -104.5t-62.5 -144.5t-20.5 -157v-463q0 -49 -55 -49q-63 0 -64 49v622q0 141 -51 214t-168 73q-88 0 -151.5 -41t-103.5 -105.5t-59.5 -145.5t-19.5 -158v-449q0 -35 -15 -47t-44 -12t-44 12t-15 47z" />
    <glyph glyph-name="n" unicode="n" horiz-adv-x="1171" 
d="M156 45v940q0 33 15 44t40 11q27 0 43 -11t16 -44v-186q12 27 39 71.5t75 86.5t116.5 73t163.5 31q158 0 255 -87t97 -272v-667q0 -49 -55 -49q-63 0 -64 49v622q0 139 -56.5 213t-201.5 74q-96 0 -166 -41t-114 -105.5t-64.5 -145.5t-20.5 -158v-449q0 -35 -15 -47
t-44 -12t-44 12t-15 47z" />
    <glyph glyph-name="o" unicode="o" horiz-adv-x="1169" 
d="M90 514q0 129 36 230.5t100.5 172t155.5 107.5t202 37t203 -37t156.5 -107.5t100 -172t35.5 -230.5t-35.5 -231.5t-100 -173t-157 -107.5t-202.5 -37q-111 0 -202 37t-155.5 107.5t-100.5 173t-36 231.5zM219 514q0 -211 94.5 -325.5t270.5 -114.5q178 0 272 114.5
t94 325.5q0 209 -94 324.5t-272 115.5q-176 0 -270.5 -115.5t-94.5 -324.5z" />
    <glyph glyph-name="p" unicode="p" horiz-adv-x="1187" 
d="M156 -381v1360q0 35 14 48t43 13t44 -13t15 -48v-119q59 84 151.5 142.5t231.5 58.5q104 0 186.5 -40t138.5 -111.5t86 -172t30 -221.5t-30 -221t-88 -174t-142 -115t-193 -41q-127 0 -221 51.5t-150 161.5v-559q0 -33 -17 -44t-44 -11t-41 11t-14 44zM266 518
q0 -96 22.5 -177t67.5 -140.5t110.5 -93t151.5 -33.5q84 0 150 31.5t110 89t66.5 138.5t22.5 177q0 98 -21.5 179t-64.5 139.5t-106.5 90t-147.5 31.5q-172 0 -266.5 -113.5t-94.5 -318.5z" />
    <glyph glyph-name="q" unicode="q" horiz-adv-x="1189" 
d="M94 516q0 121 31 221.5t89 172t144 111.5t195 40q131 0 218 -52.5t147 -140.5v113q0 35 15 48t44 13t43 -13t14 -48v-1362q0 -33 -15 -44t-42 -11t-43 11t-16 44v559q-55 -111 -149.5 -162t-221.5 -51q-109 0 -193 41t-142 115t-88 174t-30 221zM223 510q0 -96 22.5 -177
t66.5 -138.5t109.5 -89t149.5 -31.5q86 0 151.5 33.5t111 93t68 140.5t22.5 177q0 205 -98.5 318.5t-266.5 113.5q-84 0 -147.5 -31.5t-105.5 -90t-62.5 -139.5t-20.5 -179z" />
    <glyph glyph-name="r" unicode="r" horiz-adv-x="712" 
d="M156 45v940q0 33 14 44t39 11q27 0 42 -11t15 -44v-192q31 70 75 119t91 78.5t94 43t88 13.5q43 0 61.5 -16.5t18.5 -51.5q0 -37 -16 -52.5t-49 -15.5q-166 0 -260.5 -109.5t-94.5 -322.5v-434q0 -35 -16 -47t-45 -12q-27 0 -42 12t-15 47z" />
    <glyph glyph-name="s" unicode="s" horiz-adv-x="987" 
d="M94 119q0 23 20.5 43t43.5 20q16 0 31.5 -10t43.5 -27q43 -29 106.5 -53t170.5 -24q123 0 189.5 49t66.5 141q0 33 -6 63.5t-28.5 58.5t-71 49.5t-130.5 37.5l-110 20q-61 12 -114.5 32t-93.5 52.5t-63.5 79.5t-23.5 113q0 137 102.5 217t272.5 80q76 0 134 -12.5
t100 -30t69.5 -34.5t44.5 -30q14 -10 24.5 -24.5t10.5 -28.5q0 -25 -15.5 -41t-36.5 -16q-18 0 -33.5 8t-33.5 20q-45 29 -109.5 56.5t-162.5 27.5q-129 0 -185.5 -53t-56.5 -133q0 -55 42 -103.5t163 -70.5l139 -27q143 -29 219 -99.5t76 -197.5q0 -143 -98.5 -225
t-284.5 -82q-76 0 -138.5 11.5t-109.5 26.5t-80 33t-51 30q-33 25 -33 53z" />
    <glyph glyph-name="t" unicode="t" horiz-adv-x="690" 
d="M31 973q0 25 8 39t33 14h129v234q0 35 5 50t19 23q16 10 31.5 14.5t34.5 4.5q29 0 28 -35v-291h234q25 0 33 -14.5t8 -38.5q0 -23 -8 -37t-33 -14h-234v-662q0 -109 36 -148.5t122 -39.5q37 0 59.5 7t41.5 17q10 4 20 9.5t20 5.5q16 0 30 -18.5t14 -43.5
q0 -41 -58.5 -62.5t-144.5 -21.5q-133 0 -195.5 65.5t-62.5 188.5v703h-129q-25 0 -33 14t-8 37z" />
    <glyph glyph-name="u" unicode="u" horiz-adv-x="1171" 
d="M156 324v669q0 49 55 49q63 0 63 -49v-624q0 -139 53.5 -216t198.5 -77q94 0 164 42t116 107.5t68.5 147.5t22.5 159v451q0 35 15.5 47t43.5 12q29 0 44.5 -12t15.5 -47v-942q0 -33 -15.5 -44t-39.5 -11q-27 0 -43.5 11t-16.5 44v182q-12 -29 -38.5 -71.5t-75 -84.5
t-117 -72t-162.5 -30q-162 0 -257 87t-95 272z" />
    <glyph glyph-name="v" unicode="v" horiz-adv-x="1030" 
d="M39 989q0 27 23.5 40t52.5 13q31 0 47 -43l344 -870l364 870q10 23 23.5 33t28.5 10q25 0 47 -13t22 -36q0 -18 -20 -61l-391 -903q-10 -20 -27.5 -31.5t-50.5 -11.5q-35 0 -51.5 10t-22.5 27l-367 892q-6 16 -14 36t-8 38z" />
    <glyph glyph-name="w" unicode="w" horiz-adv-x="1546" 
d="M39 989q0 27 23.5 39t50.5 12q18 0 26 -9t13 -25l280 -879l270 860q18 53 86 53q27 0 46.5 -12t25.5 -37l246 -876l289 889q6 16 16 26t29 10q18 0 42.5 -10t24.5 -35q0 -12 -3 -25.5t-7 -23.5l-307 -905q-20 -55 -90 -55t-86 57l-236 831l-262 -833q-16 -55 -92 -55
q-63 0 -80 49l-297 905q-4 10 -6 21.5t-2 27.5z" />
    <glyph glyph-name="x" unicode="x" horiz-adv-x="1005" 
d="M41 35q0 20 18 43l371 465l-319 401q-18 25 -19 43q0 23 22.5 39t41.5 16q10 0 20 -5t27 -25l303 -385l307 387q14 16 24.5 22t20.5 6q18 0 40 -15t22 -38q0 -14 -5.5 -23.5t-13.5 -19.5l-323 -401l368 -463q18 -23 19 -43q0 -23 -22.5 -38t-41.5 -15q-10 0 -21.5 5
t-27.5 25l-352 443l-353 -447q-10 -12 -20 -19t-27 -7q-18 0 -38.5 13t-20.5 36z" />
    <glyph glyph-name="y" unicode="y" horiz-adv-x="1024" 
d="M39 989q0 27 23.5 40t52.5 13q27 0 45 -45l346 -833l362 835q16 43 45 43q27 0 49.5 -13t22.5 -36q0 -8 -4 -21.5t-8 -25.5l-588 -1339q-18 -45 -53 -45q-25 0 -42.5 14t-17.5 39q0 16 15 51l153 344l-389 930q-4 10 -8 23.5t-4 25.5z" />
    <glyph glyph-name="z" unicode="z" horiz-adv-x="1007" 
d="M57 70q0 20 8.5 36.5t28.5 38.5l672 775h-637q-25 0 -34 15t-9 38q0 25 9 39t34 14h711q73 0 73 -68q0 -25 -8 -40t-28 -39l-670 -775h700q25 0 33 -14t8 -39t-8 -38t-33 -13h-776q-41 0 -57.5 18.5t-16.5 51.5z" />
    <glyph glyph-name="braceleft" unicode="{" horiz-adv-x="587" 
d="M78 623q0 27 8 36t27 13q51 10 85.5 36.5t34.5 92.5v489q0 45 8.5 86t31 72t62.5 48t101 17h78q35 0 35 -49q0 -47 -35 -47h-45q-41 0 -64.5 -11t-36 -30.5t-15.5 -47.5t-3 -60v-412q0 -84 -23.5 -141t-93.5 -92q78 -31 97.5 -91.5t19.5 -142.5v-420q0 -33 3 -60.5
t15.5 -48t36 -31.5t64.5 -11h45q35 0 35 -47q0 -23 -7 -36.5t-28 -13.5h-78q-61 0 -101 18.5t-62.5 49.5t-31 71t-8.5 85v497q0 70 -37.5 96.5t-82.5 32.5q-35 2 -35 52z" />
    <glyph glyph-name="bar" unicode="|" horiz-adv-x="475" 
d="M182 -215v1671q0 35 15.5 47.5t40.5 12.5q27 0 42 -12.5t15 -47.5v-1671q0 -35 -15.5 -48t-41.5 -13q-25 0 -40.5 13t-15.5 48z" />
    <glyph glyph-name="braceright" unicode="}" horiz-adv-x="587" 
d="M39 -229q0 47 35 47h45q41 0 64.5 11t35.5 31.5t15.5 48.5t3.5 60v420q0 82 19 142.5t97 91.5q-70 35 -93 92t-23 141v412q0 33 -3.5 60.5t-15.5 47t-35.5 30.5t-64.5 11h-45q-35 0 -35 47q0 49 35 49h78q61 0 101 -17t62.5 -48t30.5 -72t8 -86v-489q0 -66 35 -92.5
t86 -36.5q18 -4 26.5 -13.5t8.5 -35.5q0 -49 -35 -52q-45 -6 -83 -32.5t-38 -96.5v-497q0 -45 -8 -85t-30.5 -71t-62.5 -49.5t-101 -18.5h-78q-20 0 -27.5 13.5t-7.5 36.5z" />
    <glyph glyph-name="asciitilde" unicode="~" horiz-adv-x="1161" 
d="M43 588q0 14 13.5 37.5t52.5 64.5q35 37 87 63.5t107 26.5q59 0 118.5 -19.5t119.5 -47.5l137 -64q43 -20 85 -33.5t89 -13.5q43 0 71.5 18.5t63.5 59.5q18 20 33 32.5t31 12.5q14 0 38.5 -14.5t24.5 -40.5q0 -14 -14.5 -38t-52.5 -65q-33 -35 -83.5 -60.5t-101.5 -25.5
q-63 0 -124.5 17.5t-121.5 46.5l-127 57q-47 23 -88 39t-94 16q-63 0 -102 -33.5t-66 -64.5q-18 -20 -39 -20q-23 0 -40 15t-17 34z" />
    <glyph glyph-name="uni00A0" unicode="&#xa0;" horiz-adv-x="501" 
 />
    <glyph glyph-name="exclamdown" unicode="&#xa1;" horiz-adv-x="534" 
d="M164 956q0 41 30.5 73t75.5 32t75 -32t30 -73q0 -43 -30 -74.5t-75 -31.5t-75.5 31.5t-30.5 74.5zM195 -78l26 682q2 29 13.5 38t33.5 9q20 0 30.5 -9t12.5 -38l25 -682v-270q0 -35 -18.5 -49.5t-51.5 -14.5t-52 14.5t-19 49.5v270z" />
    <glyph glyph-name="cent" unicode="&#xa2;" horiz-adv-x="1236" 
d="M180 729q0 111 26.5 204t79 163.5t128 114.5t172.5 57v143q0 35 12 48.5t41 13.5t42 -13.5t13 -48.5v-139q76 -4 134.5 -26.5t100.5 -53.5t68.5 -66.5t42.5 -66.5q6 -16 11.5 -27.5t5.5 -27.5q0 -27 -20.5 -43.5t-43.5 -16.5q-14 0 -25.5 6t-25.5 35q-8 14 -24.5 41
t-45 54.5t-72.5 50t-106 28.5v-868q57 4 98.5 22.5t69 43t45 49t27.5 43.5q18 33 29.5 43t27.5 10q23 0 43.5 -16.5t20.5 -39.5q0 -20 -15 -47q-10 -20 -35.5 -55t-67.5 -69.5t-102.5 -62.5t-140.5 -34v-170q0 -35 -13 -47t-42 -12t-41 12t-12 47v174q-104 12 -181 56.5
t-126.5 116t-74 166.5t-24.5 208zM309 731q0 -182 67.5 -297t209.5 -139v860q-141 -25 -209 -135.5t-68 -288.5z" />
    <glyph glyph-name="sterling" unicode="&#xa3;" 
d="M86 731q0 23 8 38t33 15h178q-14 33 -25.5 61.5t-19.5 57.5t-12 58.5t-4 64.5q0 80 27.5 152.5t83 126t137 85t190.5 31.5q102 0 178 -28.5t129 -68.5t84 -84t45 -73q10 -16 17.5 -37.5t7.5 -37.5q0 -49 -72 -50q-14 0 -24.5 6.5t-20.5 30.5q-12 31 -36.5 70t-64.5 75
t-100.5 60.5t-146.5 24.5q-84 0 -140.5 -22.5t-91 -59.5t-50 -86t-15.5 -103q0 -78 18.5 -131t53.5 -123h428q25 0 33 -15t8 -38q0 -25 -8.5 -40t-32.5 -15h-385q20 -59 36.5 -119.5t16.5 -126.5q0 -55 -17.5 -102t-47 -87t-67.5 -74t-79 -63h784q25 0 34 -14t9 -39t-9 -38
t-34 -13h-891q-37 0 -51 16.5t-14 51.5q0 27 8 45t31 30q47 27 87 53.5t68.5 58.5t44 75t15.5 102q0 66 -18.5 123t-49.5 121h-225q-25 0 -33 15.5t-8 39.5z" />
    <glyph glyph-name="currency" unicode="&#xa4;" horiz-adv-x="1175" 
d="M37 1202q0 39 30.5 64.5t59.5 25.5t53 -26l166 -170q55 39 130 60.5t132 21.5q74 0 141.5 -16.5t143.5 -69.5l158 159q27 27 47 27q33 0 59.5 -22.5t26.5 -55.5q0 -31 -25 -55l-162 -162q41 -68 58.5 -133.5t17.5 -132.5q0 -61 -18.5 -128t-61.5 -138l166 -162
q20 -20 21 -45q0 -35 -26 -55.5t-48 -20.5q-18 0 -32.5 9t-35.5 28l-145 131q-72 -47 -144.5 -67.5t-132.5 -20.5q-78 0 -148.5 19.5t-135.5 72.5l-162 -156q-14 -12 -26.5 -18t-30.5 -6q-23 0 -48.5 19.5t-25.5 53.5q0 16 8 31t19 25l159 160q-43 70 -59 135t-16 131
q0 68 18 138.5t61 137.5l-163 158q-29 25 -29 53zM289 715q0 -72 20.5 -133.5t61.5 -106.5t100 -71.5t139 -26.5q78 0 138.5 26.5t102.5 71.5t63.5 106.5t21.5 133.5q0 70 -20.5 132t-61.5 108t-101.5 73t-142.5 27q-84 0 -144 -27t-99 -73t-58.5 -108.5t-19.5 -131.5z" />
    <glyph glyph-name="yen" unicode="&#xa5;" 
d="M115 1335q0 27 20.5 43.5t42.5 16.5q27 0 45 -27l404 -559l379 551q23 35 51 35q18 0 39.5 -12.5t21.5 -39.5q0 -10 -6 -25t-16 -30l-359 -504h264q25 0 33 -10t8 -35t-8 -36t-33 -11h-317v-243h317q25 0 33 -10.5t8 -35.5t-8 -36t-33 -11h-317v-309q0 -35 -16.5 -48
t-44.5 -13q-29 0 -46.5 13t-17.5 48v309h-311q-25 0 -33 11.5t-8 35.5q0 25 8 35.5t33 10.5h311v243h-311q-25 0 -33 11.5t-8 35.5q0 25 8 35t33 10h254l-365 500q-8 10 -15 24.5t-7 26.5z" />
    <glyph glyph-name="brokenbar" unicode="&#xa6;" horiz-adv-x="477" 
d="M182 -213v662q0 35 15.5 47t40.5 12q27 0 43 -12.5t16 -46.5v-662q0 -35 -16.5 -48t-42.5 -13q-25 0 -40.5 13t-15.5 48zM182 793v661q0 35 15.5 47t40.5 12q27 0 43 -12t16 -47v-661q0 -35 -16.5 -48.5t-42.5 -13.5q-25 0 -40.5 13.5t-15.5 48.5z" />
    <glyph glyph-name="section" unicode="&#xa7;" horiz-adv-x="1132" 
d="M82 -14q0 23 18.5 45t42.5 22q16 0 33.5 -10t46.5 -33q41 -31 117 -65.5t192 -34.5q66 0 123.5 12t99.5 37t65.5 62.5t23.5 91.5q0 96 -68.5 158.5t-197.5 72.5l-125 10q-63 6 -124 24.5t-107 53.5t-73.5 86t-27.5 121q0 57 16.5 99t45 74t66.5 55.5t81 41.5
q-96 39 -137 102.5t-41 141.5q0 57 23.5 111.5t72.5 96.5t126 67.5t185 25.5q78 0 140.5 -12t107.5 -29.5t74.5 -35t42.5 -27.5q43 -37 43 -64q0 -29 -18.5 -48t-43.5 -19q-23 0 -63 30q-18 14 -44 30.5t-61 31t-81 23.5t-105 9q-113 0 -190.5 -45t-77.5 -141
q0 -31 12 -62.5t42 -58t80 -48t126 -30.5l114 -14q166 -20 238 -97t72 -185q0 -86 -58.5 -156t-169.5 -100q72 -23 117 -57t70.5 -71.5t35 -79.5t9.5 -81q0 -66 -29 -123t-85 -99t-139 -66t-190 -24q-86 0 -154.5 13.5t-120.5 33t-87 41t-51 35.5q-33 27 -33 58zM248 651
q0 -43 16.5 -78.5t54 -62.5t98 -42t146.5 -15q125 0 203 53t78 145q0 94 -81 150.5t-247 56.5q-123 0 -195.5 -58.5t-72.5 -148.5z" />
    <glyph glyph-name="dieresis" unicode="&#xa8;" horiz-adv-x="991" 
d="M188 1352q0 41 25 66.5t66 25.5q35 0 64.5 -22.5t29.5 -69.5q0 -43 -27 -67.5t-67 -24.5q-41 0 -66 24.5t-25 67.5zM643 1352q0 41 24.5 66.5t65.5 25.5q35 0 63.5 -22.5t28.5 -69.5q0 -43 -24.5 -67.5t-67.5 -24.5q-41 0 -65.5 24.5t-24.5 67.5z" />
    <glyph glyph-name="copyright" unicode="&#xa9;" horiz-adv-x="1761" 
d="M86 737q0 162 61.5 301.5t169 240.5t252 158.5t312.5 57.5q166 0 311 -57.5t252.5 -158.5t169 -240.5t61.5 -301.5q0 -160 -61.5 -301t-169 -246.5t-252.5 -167t-311 -61.5q-172 0 -318.5 59.5t-252 164t-165 246.5t-59.5 306zM197 737q0 -141 53 -266t146 -217
t218 -146.5t267 -54.5q141 0 266 54.5t218 146.5t147.5 217t54.5 266t-54.5 263t-148.5 211t-218 140.5t-265 51.5t-266.5 -51.5t-218.5 -140.5t-146 -210.5t-53 -263.5zM492 739q0 100 29.5 182.5t83.5 138.5t130 87t168 31q117 0 205 -49.5t135 -127.5q10 -16 17.5 -33.5
t7.5 -33.5q0 -23 -15.5 -37t-44.5 -14q-16 0 -27.5 6t-21.5 26q-16 33 -37.5 61t-52.5 49.5t-74 33.5t-102 12q-72 0 -124 -24.5t-86 -68.5t-51.5 -105.5t-17.5 -133.5q0 -152 71 -244t218 -92q88 0 144.5 29t91.5 94q16 39 43 39q16 0 38.5 -13t22.5 -36q0 -35 -20.5 -66.5
t-44.5 -58.5q-47 -47 -119 -70.5t-164 -23.5q-193 0 -298 119t-105 323z" />
    <glyph glyph-name="ordfeminine" unicode="&#xaa;" horiz-adv-x="798" 
d="M61 905q0 106 70 165.5t170 74.5q31 4 58.5 7t58.5 6t67.5 5t85.5 4v41q0 78 -41 117t-149 39q-59 0 -102 -13.5t-101 -52.5q-23 -14 -39 -14q-18 0 -30.5 13.5t-12.5 31.5q0 16 11.5 30.5t39.5 35.5q88 59 240 59q143 0 216 -55.5t73 -184.5v-462q0 -23 -15.5 -31
t-35.5 -8q-23 0 -38.5 8t-15.5 31v104q-63 -78 -138 -111.5t-169 -33.5q-92 0 -147.5 54t-55.5 140zM170 918q0 -43 24.5 -81t102.5 -38q51 0 100 21.5t88 54t62.5 72.5t23.5 77v63q-106 -6 -160.5 -11t-84.5 -11q-84 -16 -120 -53t-36 -94z" />
    <glyph glyph-name="guillemotleft" unicode="&#xab;" horiz-adv-x="1112" 
d="M102 543q0 14 6.5 24.5t14.5 20.5l307 348q25 29 45 29q23 0 43.5 -20.5t20.5 -43.5q0 -14 -7.5 -26.5t-25.5 -32.5l-260 -291l256 -289q16 -18 22 -29.5t6 -23.5q0 -25 -20.5 -44.5t-42.5 -19.5q-25 0 -51 33l-289 316q-10 10 -17.5 22t-7.5 27zM563 543q0 14 6.5 24.5
t14.5 20.5l307 348q25 29 45 29q23 0 43.5 -20.5t20.5 -43.5q0 -14 -7.5 -26.5t-25.5 -32.5l-260 -291l256 -289q16 -18 22 -29.5t6 -23.5q0 -25 -20.5 -44.5t-42.5 -19.5q-25 0 -51 33l-289 316q-10 10 -17.5 22t-7.5 27z" />
    <glyph glyph-name="logicalnot" unicode="&#xac;" 
d="M160 885q0 27 9 42t36 15h821q27 0 36 -15.5t9 -43.5v-453q0 -29 -17.5 -40t-41.5 -11q-25 0 -43.5 11t-18.5 40v397h-745q-27 0 -36 15.5t-9 42.5z" />
    <glyph glyph-name="uni00AD" unicode="&#xad;" horiz-adv-x="542" 
d="M49 528q0 63 53 64h336q55 0 56 -64q0 -66 -56 -65h-336q-53 0 -53 65z" />
    <glyph glyph-name="registered" unicode="&#xae;" horiz-adv-x="1761" 
d="M86 737q0 162 61.5 301.5t169 240.5t252 158.5t312.5 57.5q166 0 311 -57.5t252.5 -158.5t169 -240.5t61.5 -301.5q0 -160 -61.5 -301t-169 -246.5t-252.5 -167t-311 -61.5q-172 0 -318.5 59.5t-252 164t-165 246.5t-59.5 306zM197 737q0 -141 53 -266t146 -217
t218 -146.5t267 -54.5q141 0 266 54.5t218 146.5t147.5 217t54.5 266t-54.5 263t-148.5 211t-218 140.5t-265 51.5t-266.5 -51.5t-218.5 -140.5t-146 -210.5t-53 -263.5zM602 352v770q0 16 7 28.5t26 12.5h239q170 0 254 -62.5t84 -205.5q0 -72 -34.5 -130t-100.5 -97
l94 -279q4 -10 6.5 -18.5t2.5 -18.5q0 -18 -13.5 -30.5t-40.5 -12.5q-25 0 -34 13.5t-19 39.5l-96 279h-270v-289q0 -43 -50 -43q-25 0 -40 10.5t-15 32.5zM707 735h219q178 0 178 168q0 74 -48 120t-141 46h-208v-334z" />
    <glyph glyph-name="macron" unicode="&#xaf;" horiz-adv-x="681" 
d="M49 1362q0 33 9.5 46t33.5 13h477q43 0 43 -59q0 -35 -12 -47t-39 -12h-471q-23 0 -32 12t-9 47z" />
    <glyph glyph-name="degree" unicode="&#xb0;" horiz-adv-x="774" 
d="M55 1130q0 68 27 126.5t72 102.5t105 69.5t128 25.5t128 -25.5t105.5 -69.5t72 -102.5t26.5 -126.5t-26.5 -126t-72 -102t-105.5 -69.5t-128 -25.5t-128 25.5t-105 69.5t-72 102.5t-27 125.5zM158 1130q0 -47 18.5 -90t50 -74.5t72.5 -50t88 -18.5q45 0 87 18.5t74 50
t50 74.5t18 90t-18 90.5t-50 75t-74 50t-87 18.5q-47 0 -88 -18.5t-72.5 -50t-50 -74.5t-18.5 -91z" />
    <glyph glyph-name="plusminus" unicode="&#xb1;" 
d="M166 755q0 27 9.5 42.5t35.5 15.5h348v370q0 33 19.5 44.5t42.5 11.5q27 0 43 -11.5t16 -44.5v-370h352q27 0 36 -15.5t9 -42.5q0 -29 -9 -43t-36 -14h-352v-371q0 -33 -16.5 -44t-42.5 -11q-23 0 -42.5 11t-19.5 44v371h-348q-27 0 -36 14.5t-9 42.5zM186 62
q0 27 9.5 42t35.5 15h821q27 0 36 -15.5t9 -41.5q0 -29 -9 -43.5t-36 -14.5h-821q-27 0 -36 14.5t-9 43.5z" />
    <glyph glyph-name="uni00B2" unicode="&#xb2;" horiz-adv-x="954" 
d="M168 1235q0 20 9.5 34.5t25.5 32.5q18 18 43 40t59.5 40t79.5 30.5t103 12.5q57 0 108.5 -15.5t89 -47t59 -79.5t21.5 -112q0 -61 -15 -108.5t-43 -89t-64.5 -79.5t-77.5 -77q-29 -29 -81 -71t-139 -107h408q31 0 31 -45q0 -23 -6.5 -38.5t-24.5 -15.5h-520
q-33 0 -43 14.5t-10 39.5q0 41 49 77q53 41 117.5 91.5t117.5 97.5q86 76 139.5 146.5t53.5 148.5q0 92 -50.5 133t-134.5 41q-61 0 -104 -26.5t-76 -65.5q-23 -29 -36 -40.5t-33 -11.5q-16 0 -36 12.5t-20 37.5z" />
    <glyph glyph-name="uni00B3" unicode="&#xb3;" horiz-adv-x="954" 
d="M148 690q0 20 18.5 36.5t34.5 16.5t29.5 -8t29.5 -25q35 -33 86.5 -60.5t131.5 -27.5q88 0 144 34t56 120q0 45 -19.5 73.5t-50 45t-68.5 22.5t-75 6h-30q-18 0 -26.5 18.5t-8.5 35.5q0 20 8 36.5t25 16.5h28q80 0 134.5 40t54.5 118q0 74 -49.5 104.5t-124.5 30.5
q-39 0 -68 -6t-51.5 -18.5t-43 -30t-40.5 -39.5q-14 -16 -24.5 -23.5t-24.5 -7.5q-18 0 -35 13.5t-17 33.5q0 23 14.5 40t30.5 34q39 39 105 69.5t164 30.5q129 0 203.5 -57.5t74.5 -161.5q0 -76 -43 -129t-121 -88q104 -18 147.5 -74.5t43.5 -134.5q0 -70 -26.5 -118
t-70.5 -76.5t-99.5 -42t-112.5 -13.5q-104 0 -175 27.5t-118 68.5q-16 12 -28.5 31t-12.5 39z" />
    <glyph glyph-name="acute" unicode="&#xb4;" horiz-adv-x="765" 
d="M178 1231q0 25 21 47l155 190q29 35 47.5 50.5t40.5 15.5q35 0 54.5 -21.5t19.5 -48.5q0 -18 -11 -35.5t-28 -33.5l-186 -166q-16 -16 -31.5 -26.5t-38.5 -10.5q-18 0 -30.5 11t-12.5 28z" />
    <glyph glyph-name="mu" unicode="&#xb5;" horiz-adv-x="1259" 
d="M178 -393v1384q0 35 12.5 49.5t47.5 14.5q29 0 45 -14.5t16 -49.5v-594q0 -49 6 -93t23 -75q29 -55 95 -98t157 -43q80 0 138 25.5t97 62.5t60.5 78t29.5 72q12 47 14.5 105t2.5 95v459q0 37 12 53.5t51 16.5q57 0 57 -66v-772q0 -68 18.5 -92.5t59.5 -24.5
q29 0 49.5 8.5t38.5 8.5q16 0 26.5 -10.5t10.5 -47.5q0 -35 -28 -55q-20 -14 -50 -19t-63 -5q-78 0 -126 39.5t-54 134.5q-74 -98 -156 -140.5t-186 -42.5q-96 0 -169 35t-120 105v-504q0 -63 -53 -64q-61 0 -62 64z" />
    <glyph glyph-name="paragraph" unicode="&#xb6;" horiz-adv-x="1230" 
d="M86 1014q0 195 122 300t343 105h446q45 0 45 -61v-1499q0 -35 -17 -49.5t-46 -14.5t-44 14.5t-15 49.5v1444h-369v-1444q0 -35 -16.5 -49.5t-45.5 -14.5t-46 14.5t-17 49.5v770q-70 8 -131.5 37.5t-107.5 79t-73.5 117t-27.5 151.5z" />
    <glyph glyph-name="periodcentered" unicode="&#xb7;" horiz-adv-x="421" 
d="M112 698q0 41 29 72.5t70 31.5q39 0 68.5 -31.5t29.5 -72.5t-30 -71.5t-68 -30.5q-41 0 -70 30.5t-29 71.5z" />
    <glyph glyph-name="cedilla" unicode="&#xb8;" horiz-adv-x="923" 
d="M238 -385q0 18 13 39.5t30 21.5q16 0 45 -16q20 -10 47.5 -20.5t64.5 -10.5q45 0 76 20.5t31 67.5q0 29 -14.5 47.5t-38 28.5t-52 13.5t-57.5 3.5q-33 0 -35 16t4 35l43 139h92l-30 -106q109 -8 154.5 -53.5t45.5 -119.5q0 -78 -53 -132t-166 -54q-63 0 -105 12.5
t-63 24.5q-33 20 -32 43z" />
    <glyph glyph-name="uni00B9" unicode="&#xb9;" horiz-adv-x="954" 
d="M195 1202q0 35 65 68q66 35 113 60.5t82 45.5t55.5 29.5t48.5 9.5q27 0 46.5 -14.5t19.5 -48.5v-762q0 -25 -11.5 -44.5t-45.5 -19.5q-59 0 -60 70v688q-35 -20 -81 -46t-95 -52q-27 -14 -48 -22.5t-44 -8.5q-18 0 -31.5 12.5t-13.5 34.5z" />
    <glyph glyph-name="ordmasculine" unicode="&#xba;" horiz-adv-x="833" 
d="M78 1081q0 86 25.5 155t71.5 118t109.5 74.5t137.5 25.5q152 0 244 -99.5t92 -269.5q0 -86 -25.5 -154.5t-71 -117.5t-107.5 -74.5t-136 -25.5q-162 0 -251 98t-89 270zM193 1079q0 -119 57 -191.5t168 -72.5q113 0 169 71.5t56 194.5q0 129 -55.5 199t-167.5 70
q-106 0 -166.5 -71t-60.5 -200z" />
    <glyph glyph-name="guillemotright" unicode="&#xbb;" horiz-adv-x="1112" 
d="M113 901q0 23 20.5 43.5t42.5 20.5q20 0 45 -29l307 -348q8 -10 14.5 -20.5t6.5 -24.5t-7 -26.5t-18 -22.5l-288 -316q-27 -33 -52 -33q-23 0 -43 19.5t-20 44.5q0 12 6 23.5t23 29.5l256 285l-261 295q-18 20 -25 32.5t-7 26.5zM574 901q0 23 20.5 43.5t42.5 20.5
q20 0 45 -29l307 -348q8 -10 14.5 -20.5t6.5 -24.5t-7 -26.5t-18 -22.5l-288 -316q-27 -33 -52 -33q-23 0 -43 19.5t-20 44.5q0 12 6 23.5t23 29.5l256 285l-261 295q-18 20 -25 32.5t-7 26.5z" />
    <glyph glyph-name="onequarter" unicode="&#xbc;" horiz-adv-x="1968" 
d="M33 1210q0 35 65 68q66 35 113 60.5t82 45.5t55.5 29.5t48.5 9.5q27 0 46.5 -14.5t19.5 -48.5v-762q0 -25 -11.5 -44.5t-45.5 -19.5q-59 0 -60 70v688q-35 -20 -81 -46t-95 -52q-27 -14 -48 -22.5t-44 -8.5q-18 0 -31.5 12.5t-13.5 34.5zM498 12q0 16 10 37l662 1340
q16 33 39 32q23 0 48 -13t25 -34q0 -8 -2 -18t-10 -27l-657 -1325q-8 -16 -18.5 -25.5t-28.5 -9.5q-33 0 -50.5 13.5t-17.5 29.5zM1100 252q0 23 8.5 39.5t18.5 28.5l411 510q23 29 42.5 41t48.5 12q23 0 42 -11.5t19 -39.5v-533h117q31 0 30 -47q0 -18 -6 -30.5t-22 -12.5
h-119v-170q0 -16 -12.5 -30.5t-38.5 -14.5q-57 0 -58 45v170h-432q-49 0 -49 43zM1233 299h348v437z" />
    <glyph glyph-name="onehalf" unicode="&#xbd;" horiz-adv-x="1968" 
d="M6 1210q0 35 65 68q66 35 113 60.5t82 45.5t55.5 29.5t48.5 9.5q27 0 46.5 -14.5t19.5 -48.5v-762q0 -25 -11.5 -44.5t-45.5 -19.5q-59 0 -60 70v688q-35 -20 -81 -46t-95 -52q-27 -14 -48 -22.5t-44 -8.5q-18 0 -31.5 12.5t-13.5 34.5zM434 12q0 16 10 37l662 1340
q16 33 39 32q23 0 48 -13t25 -34q0 -8 -2 -18t-10 -27l-657 -1325q-8 -16 -18.5 -25.5t-28.5 -9.5q-33 0 -50.5 13.5t-17.5 29.5zM1198 699q0 20 9.5 34.5t25.5 32.5q18 18 43 40t59.5 40t79.5 30.5t103 12.5q57 0 108.5 -15.5t89 -47t59 -79.5t21.5 -112q0 -61 -15 -108.5
t-43 -89t-64.5 -79.5t-77.5 -77q-29 -29 -81 -71t-139 -107h408q31 0 31 -45q0 -23 -6.5 -38.5t-24.5 -15.5h-520q-33 0 -43 14.5t-10 39.5q0 41 49 77q53 41 117.5 91.5t117.5 97.5q86 76 139.5 146.5t53.5 148.5q0 92 -50.5 133t-134.5 41q-61 0 -104 -26.5t-76 -65.5
q-23 -29 -36 -40.5t-33 -11.5q-16 0 -36 12.5t-20 37.5z" />
    <glyph glyph-name="threequarters" unicode="&#xbe;" horiz-adv-x="1968" 
d="M98 696q0 20 18.5 36.5t34.5 16.5t29.5 -8t29.5 -25q35 -33 86.5 -60.5t131.5 -27.5q88 0 144 34t56 120q0 45 -19.5 73.5t-50 45t-68.5 22.5t-75 6h-30q-18 0 -26.5 18.5t-8.5 35.5q0 20 8 36.5t25 16.5h28q80 0 134.5 40t54.5 118q0 74 -49.5 104.5t-124.5 30.5
q-39 0 -68 -6t-51.5 -18.5t-43 -30t-40.5 -39.5q-14 -16 -24.5 -23.5t-24.5 -7.5q-18 0 -35 13.5t-17 33.5q0 23 14.5 40t30.5 34q39 39 105 69.5t164 30.5q129 0 203.5 -57.5t74.5 -161.5q0 -76 -43 -129t-121 -88q104 -18 147.5 -74.5t43.5 -134.5q0 -70 -26.5 -118
t-70.5 -76.5t-99.5 -42t-112.5 -13.5q-104 0 -175 27.5t-118 68.5q-16 12 -28.5 31t-12.5 39zM653 12q0 16 10 37l662 1340q16 33 39 32q23 0 48 -13t25 -34q0 -8 -2 -18t-10 -27l-657 -1325q-8 -16 -18.5 -25.5t-28.5 -9.5q-33 0 -50.5 13.5t-17.5 29.5zM1169 252
q0 23 8.5 39.5t18.5 28.5l411 510q23 29 42.5 41t48.5 12q23 0 42 -11.5t19 -39.5v-533h117q31 0 30 -47q0 -18 -6 -30.5t-22 -12.5h-119v-170q0 -16 -12.5 -30.5t-38.5 -14.5q-57 0 -58 45v170h-432q-49 0 -49 43zM1302 299h348v437z" />
    <glyph glyph-name="questiondown" unicode="&#xbf;" horiz-adv-x="1089" 
d="M100 -61q0 76 20.5 133t54.5 102t76 81t85 67q53 39 87 69.5t52.5 58t25.5 58.5t7 70q0 33 13.5 44t39.5 11q25 0 41 -11.5t16 -43.5v-25q0 -57 -16 -101t-44 -79t-62.5 -62.5t-69.5 -54.5q-39 -29 -74 -57.5t-62.5 -65.5t-44 -83t-16.5 -107q0 -137 88.5 -199.5
t225.5 -62.5q88 0 147.5 26.5t96 64.5t56 77.5t27.5 66.5q8 29 23.5 35t32.5 6q23 0 43 -13.5t20 -35.5q1 -31 -24 -84q-12 -25 -39 -67t-78 -84t-128 -72.5t-188 -30.5q-94 0 -173.5 22.5t-137 68.5t-89.5 115.5t-32 162.5zM471 956q0 41 30.5 73t76.5 32q45 0 74.5 -32
t29.5 -73q0 -43 -29.5 -74.5t-74.5 -31.5t-76 31.5t-31 74.5z" />
    <glyph glyph-name="Agrave" unicode="&#xc0;" horiz-adv-x="1355" 
d="M41 35q0 4 1 11t7 22l547 1314q23 53 86 54q31 0 48.5 -12.5t25.5 -30.5l549 -1319q10 -27 10 -37q0 -27 -23.5 -39t-46.5 -12t-34 11t-17 26l-168 399h-698l-172 -402q-17 -34 -50 -34q-27 0 -46 11t-19 38zM375 528h604l-301 770zM477 1745q0 29 21.5 50.5t50.5 21.5
q18 0 37.5 -11.5t48.5 -33.5l194 -152q31 -25 31 -47q0 -16 -13.5 -30.5t-31.5 -14.5q-16 0 -31.5 6t-32.5 16l-219 121q-29 16 -42 32.5t-13 41.5z" />
    <glyph glyph-name="Aacute" unicode="&#xc1;" horiz-adv-x="1355" 
d="M41 35q0 4 1 11t7 22l547 1314q23 53 86 54q31 0 48.5 -12.5t25.5 -30.5l549 -1319q10 -27 10 -37q0 -27 -23.5 -39t-46.5 -12t-34 11t-17 26l-168 399h-698l-172 -402q-17 -34 -50 -34q-27 0 -46 11t-19 38zM375 528h604l-301 770zM494 1573q0 23 31 47l194 152
q29 23 48.5 34t37.5 11q29 0 50.5 -21.5t21.5 -50.5q0 -25 -13.5 -41t-41.5 -33l-219 -121q-16 -10 -32 -16t-32 -6q-18 0 -31.5 14t-13.5 31z" />
    <glyph glyph-name="Acircumflex" unicode="&#xc2;" horiz-adv-x="1355" 
d="M41 35q0 4 1 11t7 22l547 1314q23 53 86 54q31 0 48.5 -12.5t25.5 -30.5l549 -1319q10 -27 10 -37q0 -27 -23.5 -39t-46.5 -12t-34 11t-17 26l-168 399h-698l-172 -402q-17 -34 -50 -34q-27 0 -46 11t-19 38zM375 528h604l-301 770zM381 1575q0 18 8 31.5t32 33.5
l164 140q49 41 95 41q45 0 84 -33l163 -144q23 -20 35 -34.5t12 -32.5q0 -23 -15 -36t-36 -13q-23 0 -42 14t-54 43l-147 127l-150 -127q-35 -29 -55.5 -42t-42.5 -13q-23 0 -37 13t-14 32z" />
    <glyph glyph-name="Atilde" unicode="&#xc3;" horiz-adv-x="1355" 
d="M41 35q0 4 1 11t7 22l547 1314q23 53 86 54q31 0 48.5 -12.5t25.5 -30.5l549 -1319q10 -27 10 -37q0 -27 -23.5 -39t-46.5 -12t-34 11t-17 26l-168 399h-698l-172 -402q-17 -34 -50 -34q-27 0 -46 11t-19 38zM314 1610q0 29 16.5 54.5t34.5 45.5q35 37 70.5 52.5
t76.5 15.5q66 0 138 -33l71 -33q23 -10 53.5 -20.5t57.5 -10.5q39 0 59.5 24t38.5 58q8 14 19.5 24.5t27.5 10.5t34 -10t18 -33q0 -12 -5 -33q-16 -72 -70.5 -108.5t-117.5 -36.5q-41 0 -72.5 7t-62.5 22l-76 30q-31 14 -56.5 23.5t-51.5 9.5q-37 0 -56.5 -13.5t-42.5 -43.5
q-14 -20 -23.5 -32.5t-31.5 -12.5q-16 0 -32.5 8t-16.5 35zM375 528h604l-301 770z" />
    <glyph glyph-name="Adieresis" unicode="&#xc4;" horiz-adv-x="1355" 
d="M41 35q0 4 1 11t7 22l547 1314q23 53 86 54q31 0 48.5 -12.5t25.5 -30.5l549 -1319q10 -27 10 -37q0 -27 -23.5 -39t-46.5 -12t-34 11t-17 26l-168 399h-698l-172 -402q-17 -34 -50 -34q-27 0 -46 11t-19 38zM359 1647q0 41 24.5 66.5t65.5 25.5q35 0 64.5 -22.5
t29.5 -69.5q0 -43 -26.5 -68t-67.5 -25t-65.5 25t-24.5 68zM375 528h604l-301 770zM814 1647q0 41 24.5 66.5t65.5 25.5q35 0 63.5 -22.5t28.5 -69.5q0 -43 -24.5 -68t-67.5 -25q-41 0 -65.5 25t-24.5 68z" />
    <glyph glyph-name="Aring" unicode="&#xc5;" horiz-adv-x="1355" 
d="M41 35q0 4 1 11t7 22l547 1314q23 53 86 54q31 0 48.5 -12.5t25.5 -30.5l549 -1319q10 -27 10 -37q0 -27 -23.5 -39t-46.5 -12t-34 11t-17 26l-168 399h-698l-172 -402q-17 -34 -50 -34q-27 0 -46 11t-19 38zM375 528h604l-301 770zM457 1726q0 45 17.5 85t47 70
t70.5 47.5t88 17.5t88 -17.5t71 -47.5t47 -70t17 -85t-17 -84.5t-47 -69.5t-71 -47.5t-88 -17.5t-88 17.5t-70.5 47.5t-47 69.5t-17.5 84.5zM553 1726q0 -51 38 -91t89 -40t89 40t38 91t-38 91.5t-89 40.5t-89 -40t-38 -92z" />
    <glyph glyph-name="AE" unicode="&#xc6;" horiz-adv-x="1931" 
d="M41 33q0 4 1 12t7 18l762 1305q14 23 33.5 38t46.5 15h909q47 0 47 -55q0 -57 -47 -57h-780v-527h739q47 0 47 -55q0 -57 -47 -57h-739v-557h780q47 0 47 -56q0 -57 -47 -57h-839q-29 0 -47.5 15.5t-18.5 50.5v356h-498l-239 -402q-10 -16 -21.5 -26t-30.5 -10
q-27 0 -46 12t-19 37zM453 528h442v758z" />
    <glyph glyph-name="Ccedilla" unicode="&#xc7;" horiz-adv-x="1404" 
d="M104 707q0 170 47.5 308t134.5 236.5t209.5 151.5t272.5 53q98 0 174 -21.5t131 -51t91 -61.5t55 -50q35 -41 64.5 -93.5t29.5 -93.5q0 -33 -26.5 -44t-43.5 -11q-31 0 -51 41q-23 45 -57.5 93t-85 86t-119 62.5t-160.5 24.5q-129 0 -227.5 -46t-166 -130t-101 -199.5
t-33.5 -254.5q0 -137 33.5 -252t101 -198t166 -129t227.5 -46q104 0 178 30.5t123 73.5t79 88t44 76q27 55 59 56q18 0 44 -12.5t26 -43.5q0 -41 -29.5 -93t-64.5 -93q-16 -18 -50 -51t-91.5 -66t-137.5 -57q-68 -20 -155 -25l-21 -71q109 -8 155 -53.5t46 -119.5
q0 -78 -53.5 -132t-165.5 -54q-63 0 -105.5 12.5t-62.5 24.5q-33 20 -33 43q0 18 13.5 39.5t29.5 21.5t45 -16q20 -10 48 -20.5t65 -10.5q45 0 75.5 20.5t30.5 67.5q0 29 -14 47.5t-38 28.5t-52.5 13.5t-57.5 3.5q-33 0 -34.5 16t4.5 35l32 106q-119 10 -215 49
q-123 53 -207.5 149.5t-130 234t-45.5 307.5z" />
    <glyph glyph-name="Egrave" unicode="&#xc8;" horiz-adv-x="1206" 
d="M170 66v1290q0 66 66 65h839q47 0 47 -55q0 -57 -47 -57h-780v-527h739q47 0 47 -55q0 -57 -47 -57h-739v-557h780q47 0 47 -56q0 -57 -47 -57h-839q-66 0 -66 66zM389 1745q0 29 21.5 50.5t50.5 21.5q18 0 37.5 -11.5t48.5 -33.5l194 -152q31 -25 31 -47
q0 -16 -13.5 -30.5t-31.5 -14.5q-16 0 -31.5 6t-32.5 16l-219 121q-29 16 -42 32.5t-13 41.5z" />
    <glyph glyph-name="Eacute" unicode="&#xc9;" horiz-adv-x="1206" 
d="M170 66v1290q0 66 66 65h839q47 0 47 -55q0 -57 -47 -57h-780v-527h739q47 0 47 -55q0 -57 -47 -57h-739v-557h780q47 0 47 -56q0 -57 -47 -57h-839q-66 0 -66 66zM528 1573q0 23 31 47l194 152q29 23 48.5 34t37.5 11q29 0 50.5 -21.5t21.5 -50.5q0 -25 -13.5 -41
t-41.5 -33l-219 -121q-16 -10 -32 -16t-32 -6q-18 0 -31.5 14t-13.5 31z" />
    <glyph glyph-name="Ecircumflex" unicode="&#xca;" horiz-adv-x="1206" 
d="M170 66v1290q0 66 66 65h839q47 0 47 -55q0 -57 -47 -57h-780v-527h739q47 0 47 -55q0 -57 -47 -57h-739v-557h780q47 0 47 -56q0 -57 -47 -57h-839q-66 0 -66 66zM353 1573q0 18 8 31.5t32 33.5l164 140q49 41 95 41q45 0 84 -33l163 -144q23 -20 35 -34.5t12 -32.5
q0 -23 -15 -36t-36 -13q-23 0 -42 14t-54 43l-147 127l-150 -127q-35 -29 -55.5 -42t-42.5 -13q-23 0 -37 13t-14 32z" />
    <glyph glyph-name="Edieresis" unicode="&#xcb;" horiz-adv-x="1206" 
d="M170 66v1290q0 66 66 65h839q47 0 47 -55q0 -57 -47 -57h-780v-527h739q47 0 47 -55q0 -57 -47 -57h-739v-557h780q47 0 47 -56q0 -57 -47 -57h-839q-66 0 -66 66zM328 1647q0 41 24.5 66.5t65.5 25.5q35 0 64.5 -22.5t29.5 -69.5q0 -43 -26.5 -68t-67.5 -25t-65.5 25
t-24.5 68zM783 1647q0 41 24.5 66.5t65.5 25.5q35 0 63.5 -22.5t28.5 -69.5q0 -43 -24.5 -68t-67.5 -25q-41 0 -65.5 25t-24.5 68z" />
    <glyph glyph-name="Igrave" unicode="&#xcc;" horiz-adv-x="462" 
d="M8 1745q0 29 21.5 50.5t50.5 21.5q18 0 37.5 -11.5t48.5 -33.5l194 -152q31 -25 31 -47q0 -16 -13.5 -30.5t-31.5 -14.5q-16 0 -31.5 6t-32.5 16l-219 121q-29 16 -42 32.5t-13 41.5zM170 47v1327q0 35 16.5 48.5t44.5 13.5q29 0 45.5 -13.5t16.5 -48.5v-1327
q0 -35 -16.5 -48t-45.5 -13t-45 13t-16 48z" />
    <glyph glyph-name="Iacute" unicode="&#xcd;" horiz-adv-x="462" 
d="M78 1573q0 23 31 47l194 152q29 23 48.5 34t37.5 11q29 0 50.5 -21.5t21.5 -50.5q0 -25 -13.5 -41t-41.5 -33l-219 -121q-16 -10 -32 -16t-32 -6q-18 0 -31.5 14t-13.5 31zM170 47v1327q0 35 16.5 48.5t44.5 13.5q29 0 45.5 -13.5t16.5 -48.5v-1327q0 -35 -16.5 -48
t-45.5 -13t-45 13t-16 48z" />
    <glyph glyph-name="Icircumflex" unicode="&#xce;" horiz-adv-x="462" 
d="M-61 1573q0 18 8 31.5t32 33.5l164 140q49 41 95 41q45 0 84 -33l163 -144q23 -20 35 -34.5t12 -32.5q0 -23 -15 -36t-36 -13q-23 0 -42 14t-54 43l-147 127l-150 -127q-35 -29 -55.5 -42t-42.5 -13q-23 0 -37 13t-14 32zM170 47v1327q0 35 16.5 48.5t44.5 13.5
q29 0 45.5 -13.5t16.5 -48.5v-1327q0 -35 -16.5 -48t-45.5 -13t-45 13t-16 48z" />
    <glyph glyph-name="Idieresis" unicode="&#xcf;" horiz-adv-x="462" 
d="M-78 1647q0 41 24.5 66.5t65.5 25.5q35 0 64.5 -22.5t29.5 -69.5q0 -43 -26.5 -68t-67.5 -25t-65.5 25t-24.5 68zM170 47v1327q0 35 16.5 48.5t44.5 13.5q29 0 45.5 -13.5t16.5 -48.5v-1327q0 -35 -16.5 -48t-45.5 -13t-45 13t-16 48zM377 1647q0 41 24.5 66.5t65.5 25.5
q35 0 63.5 -22.5t28.5 -69.5q0 -43 -24.5 -68t-67.5 -25q-41 0 -65.5 25t-24.5 68z" />
    <glyph glyph-name="Eth" unicode="&#xd0;" horiz-adv-x="1447" 
d="M6 715q0 55 45 55h127v586q0 66 68 65h395q158 0 288 -43t222 -130t143.5 -221t51.5 -318q0 -182 -51.5 -315.5t-143.5 -220.5t-222 -130t-288 -43h-395q-68 0 -68 66v598h-129q-20 0 -31.5 10t-11.5 41zM303 113h324q131 0 238.5 35.5t183 109.5t117.5 186.5t42 264.5
q0 154 -43 266t-119.5 186t-183 111t-235.5 37h-324v-539h436q43 0 43 -55q0 -31 -12 -41t-37 -10h-430v-551z" />
    <glyph glyph-name="Ntilde" unicode="&#xd1;" horiz-adv-x="1449" 
d="M170 43v1327q0 37 21.5 51.5t56.5 14.5q37 0 56.5 -14.5t47.5 -55.5l809 -1198v1210q0 33 15.5 45.5t44.5 12.5t44 -12.5t15 -45.5v-1327q0 -37 -21.5 -51t-58.5 -14q-39 0 -61.5 19.5t-44.5 49.5l-805 1194v-1206q0 -33 -15.5 -45t-44.5 -12t-44 12t-15 45zM398 1610
q0 29 16.5 54.5t34.5 45.5q35 37 70.5 52.5t76.5 15.5q66 0 138 -33l71 -33q23 -10 53.5 -20.5t57.5 -10.5q39 0 59.5 24t38.5 58q8 14 19.5 24.5t27.5 10.5t34 -10t18 -33q0 -12 -5 -33q-16 -72 -70.5 -108.5t-117.5 -36.5q-41 0 -72.5 7t-62.5 22l-76 30
q-31 14 -56.5 23.5t-51.5 9.5q-37 0 -56.5 -13.5t-42.5 -43.5q-14 -20 -23.5 -32.5t-31.5 -12.5q-16 0 -32.5 8t-16.5 35z" />
    <glyph glyph-name="Ograve" unicode="&#xd2;" horiz-adv-x="1548" 
d="M104 713q0 174 48.5 311t136.5 233.5t212 147.5t273 51q150 0 272.5 -51t211 -147.5t137.5 -233.5t49 -311t-49 -312.5t-137.5 -235.5t-211 -148.5t-272.5 -51.5t-273.5 51.5t-211.5 148.5t-136.5 235.5t-48.5 312.5zM242 713q0 -143 33.5 -259t101 -199t167 -128
t230.5 -45t230.5 45t167 128t101.5 198.5t34 259.5q0 141 -34 256.5t-101.5 197.5t-167 127t-230.5 45t-230.5 -45t-167 -127t-101 -197.5t-33.5 -256.5zM586 1745q0 29 21.5 50.5t50.5 21.5q18 0 37.5 -11.5t48.5 -33.5l194 -152q31 -25 31 -47q0 -16 -13.5 -30.5
t-31.5 -14.5q-16 0 -31.5 6t-32.5 16l-219 121q-29 16 -42 32.5t-13 41.5z" />
    <glyph glyph-name="Oacute" unicode="&#xd3;" horiz-adv-x="1548" 
d="M104 713q0 174 48.5 311t136.5 233.5t212 147.5t273 51q150 0 272.5 -51t211 -147.5t137.5 -233.5t49 -311t-49 -312.5t-137.5 -235.5t-211 -148.5t-272.5 -51.5t-273.5 51.5t-211.5 148.5t-136.5 235.5t-48.5 312.5zM242 713q0 -143 33.5 -259t101 -199t167 -128
t230.5 -45t230.5 45t167 128t101.5 198.5t34 259.5q0 141 -34 256.5t-101.5 197.5t-167 127t-230.5 45t-230.5 -45t-167 -127t-101 -197.5t-33.5 -256.5zM608 1573q0 23 31 47l194 152q29 23 48.5 34t37.5 11q29 0 50.5 -21.5t21.5 -50.5q0 -25 -13.5 -41t-41.5 -33
l-219 -121q-16 -10 -32 -16t-32 -6q-18 0 -31.5 14t-13.5 31z" />
    <glyph glyph-name="Ocircumflex" unicode="&#xd4;" horiz-adv-x="1548" 
d="M104 713q0 174 48.5 311t136.5 233.5t212 147.5t273 51q150 0 272.5 -51t211 -147.5t137.5 -233.5t49 -311t-49 -312.5t-137.5 -235.5t-211 -148.5t-272.5 -51.5t-273.5 51.5t-211.5 148.5t-136.5 235.5t-48.5 312.5zM242 713q0 -143 33.5 -259t101 -199t167 -128
t230.5 -45t230.5 45t167 128t101.5 198.5t34 259.5q0 141 -34 256.5t-101.5 197.5t-167 127t-230.5 45t-230.5 -45t-167 -127t-101 -197.5t-33.5 -256.5zM488 1573q0 18 8 31.5t32 33.5l164 140q49 41 95 41q45 0 84 -33l163 -144q23 -20 35 -34.5t12 -32.5q0 -23 -15 -36
t-36 -13q-23 0 -42 14t-54 43l-147 127l-150 -127q-35 -29 -55.5 -42t-42.5 -13q-23 0 -37 13t-14 32z" />
    <glyph glyph-name="Otilde" unicode="&#xd5;" horiz-adv-x="1548" 
d="M104 713q0 174 48.5 311t136.5 233.5t212 147.5t273 51q150 0 272.5 -51t211 -147.5t137.5 -233.5t49 -311t-49 -312.5t-137.5 -235.5t-211 -148.5t-272.5 -51.5t-273.5 51.5t-211.5 148.5t-136.5 235.5t-48.5 312.5zM242 713q0 -143 33.5 -259t101 -199t167 -128
t230.5 -45t230.5 45t167 128t101.5 198.5t34 259.5q0 141 -34 256.5t-101.5 197.5t-167 127t-230.5 45t-230.5 -45t-167 -127t-101 -197.5t-33.5 -256.5zM424 1610q0 29 16.5 54.5t34.5 45.5q35 37 70.5 52.5t76.5 15.5q66 0 138 -33l71 -33q23 -10 53.5 -20.5t57.5 -10.5
q39 0 59.5 24t38.5 58q8 14 19.5 24.5t27.5 10.5t34 -10t18 -33q0 -12 -5 -33q-16 -72 -70.5 -108.5t-117.5 -36.5q-41 0 -72.5 7t-62.5 22l-76 30q-31 14 -56.5 23.5t-51.5 9.5q-37 0 -56.5 -13.5t-42.5 -43.5q-14 -20 -23.5 -32.5t-31.5 -12.5q-16 0 -32.5 8t-16.5 35z
" />
    <glyph glyph-name="Odieresis" unicode="&#xd6;" horiz-adv-x="1548" 
d="M104 713q0 174 48.5 311t136.5 233.5t212 147.5t273 51q150 0 272.5 -51t211 -147.5t137.5 -233.5t49 -311t-49 -312.5t-137.5 -235.5t-211 -148.5t-272.5 -51.5t-273.5 51.5t-211.5 148.5t-136.5 235.5t-48.5 312.5zM242 713q0 -143 33.5 -259t101 -199t167 -128
t230.5 -45t230.5 45t167 128t101.5 198.5t34 259.5q0 141 -34 256.5t-101.5 197.5t-167 127t-230.5 45t-230.5 -45t-167 -127t-101 -197.5t-33.5 -256.5zM465 1647q0 41 24.5 66.5t65.5 25.5q35 0 64.5 -22.5t29.5 -69.5q0 -43 -26.5 -68t-67.5 -25t-65.5 25t-24.5 68z
M920 1647q0 41 24.5 66.5t65.5 25.5q35 0 63.5 -22.5t28.5 -69.5q0 -43 -24.5 -68t-67.5 -25q-41 0 -65.5 25t-24.5 68z" />
    <glyph glyph-name="multiply" unicode="&#xd7;" 
d="M268 395q0 16 17 33l264 262l-262 262q-18 18 -19 37q0 25 21.5 47.5t44.5 22.5q18 0 39 -21l262 -262l254 260q8 8 17 15.5t24 7.5q18 0 40.5 -20.5t22.5 -41.5q0 -18 -16 -34l-262 -269l256 -254q18 -16 18 -39q0 -25 -21.5 -44t-43.5 -19q-12 0 -19.5 4t-17.5 14
l-256 254l-264 -264q-16 -16 -33 -16q-23 0 -44.5 22.5t-21.5 42.5z" />
    <glyph glyph-name="Oslash" unicode="&#xd8;" horiz-adv-x="1548" 
d="M104 709q0 174 48.5 312t136.5 234.5t212 148.5t273 52q111 0 206 -28.5t173 -81.5l96 141q18 29 43 29q18 0 39 -15.5t21 -38.5q0 -20 -15 -41l-98 -145q98 -98 151.5 -240.5t53.5 -326.5q0 -174 -49 -312.5t-137.5 -234.5t-211 -147.5t-272.5 -51.5q-203 0 -360 94
l-111 -163q-16 -25 -45 -25q-20 0 -38.5 13.5t-18.5 35.5q0 20 16 43l111 164q-106 96 -165 243.5t-59 340.5zM242 709q0 -154 38.5 -276t116.5 -206l688 1018q-125 94 -311 94q-131 0 -230.5 -45t-167 -128t-101 -199.5t-33.5 -257.5zM481 158q121 -78 293 -78
q131 0 230.5 45t167 127t101.5 198t34 259t-35 259.5t-105 200.5z" />
    <glyph glyph-name="Ugrave" unicode="&#xd9;" horiz-adv-x="1433" 
d="M160 512v862q0 35 16.5 48.5t46.5 13.5q29 0 45.5 -13.5t16.5 -48.5v-846q0 -217 108.5 -332.5t308.5 -115.5q215 0 331 106.5t116 331.5v856q0 35 15.5 48.5t43.5 13.5q31 0 48.5 -13.5t17.5 -48.5v-862q0 -262 -143.5 -404.5t-421.5 -142.5q-272 0 -410.5 138.5
t-138.5 408.5zM506 1745q0 29 21.5 50.5t50.5 21.5q18 0 37.5 -11.5t48.5 -33.5l194 -152q31 -25 31 -47q0 -16 -13.5 -30.5t-31.5 -14.5q-16 0 -31.5 6t-32.5 16l-219 121q-29 16 -42 32.5t-13 41.5z" />
    <glyph glyph-name="Uacute" unicode="&#xda;" horiz-adv-x="1433" 
d="M160 512v862q0 35 16.5 48.5t46.5 13.5q29 0 45.5 -13.5t16.5 -48.5v-846q0 -217 108.5 -332.5t308.5 -115.5q215 0 331 106.5t116 331.5v856q0 35 15.5 48.5t43.5 13.5q31 0 48.5 -13.5t17.5 -48.5v-862q0 -262 -143.5 -404.5t-421.5 -142.5q-272 0 -410.5 138.5
t-138.5 408.5zM588 1573q0 23 31 47l194 152q29 23 48.5 34t37.5 11q29 0 50.5 -21.5t21.5 -50.5q0 -25 -13.5 -41t-41.5 -33l-219 -121q-16 -10 -32 -16t-32 -6q-18 0 -31.5 14t-13.5 31z" />
    <glyph glyph-name="Ucircumflex" unicode="&#xdb;" horiz-adv-x="1433" 
d="M160 512v862q0 35 16.5 48.5t46.5 13.5q29 0 45.5 -13.5t16.5 -48.5v-846q0 -217 108.5 -332.5t308.5 -115.5q215 0 331 106.5t116 331.5v856q0 35 15.5 48.5t43.5 13.5q31 0 48.5 -13.5t17.5 -48.5v-862q0 -262 -143.5 -404.5t-421.5 -142.5q-272 0 -410.5 138.5
t-138.5 408.5zM439 1573q0 18 8 31.5t32 33.5l164 140q49 41 95 41q45 0 84 -33l163 -144q23 -20 35 -34.5t12 -32.5q0 -23 -15 -36t-36 -13q-23 0 -42 14t-54 43l-147 127l-150 -127q-35 -29 -55.5 -42t-42.5 -13q-23 0 -37 13t-14 32z" />
    <glyph glyph-name="Udieresis" unicode="&#xdc;" horiz-adv-x="1433" 
d="M160 512v862q0 35 16.5 48.5t46.5 13.5q29 0 45.5 -13.5t16.5 -48.5v-846q0 -217 108.5 -332.5t308.5 -115.5q215 0 331 106.5t116 331.5v856q0 35 15.5 48.5t43.5 13.5q31 0 48.5 -13.5t17.5 -48.5v-862q0 -262 -143.5 -404.5t-421.5 -142.5q-272 0 -410.5 138.5
t-138.5 408.5zM408 1647q0 41 24.5 66.5t65.5 25.5q35 0 64.5 -22.5t29.5 -69.5q0 -43 -26.5 -68t-67.5 -25t-65.5 25t-24.5 68zM863 1647q0 41 24.5 66.5t65.5 25.5q35 0 63.5 -22.5t28.5 -69.5q0 -43 -24.5 -68t-67.5 -25q-41 0 -65.5 25t-24.5 68z" />
    <glyph glyph-name="Yacute" unicode="&#xdd;" horiz-adv-x="1220" 
d="M35 1376q0 27 20.5 43.5t42.5 16.5q27 0 45 -27l473 -641l457 633q23 35 51 35q18 0 40 -12.5t22 -39.5q0 -10 -6 -25.5t-17 -29.5l-489 -676v-606q0 -35 -16.5 -48t-45.5 -13t-46 13t-17 48v610l-492 668q-8 10 -15 24.5t-7 26.5zM502 1573q0 23 31 47l194 152
q29 23 48.5 34t37.5 11q29 0 50.5 -21.5t21.5 -50.5q0 -25 -13.5 -41t-41.5 -33l-219 -121q-16 -10 -32 -16t-32 -6q-18 0 -31.5 14t-13.5 31z" />
    <glyph glyph-name="Thorn" unicode="&#xde;" horiz-adv-x="1267" 
d="M197 43v1331q0 35 16 48.5t45 13.5t44 -13.5t15 -48.5v-209h328q274 0 400 -107.5t126 -307.5q0 -55 -19 -128t-74.5 -136.5t-155 -107.5t-258.5 -44h-349v-291q0 -35 -15 -48t-44 -13t-44 13t-15 48zM315 440h303q121 0 201 22.5t128 63.5t67.5 97.5t19.5 126.5
q0 68 -19.5 124t-65.5 98t-122.5 64.5t-191.5 22.5h-320v-619z" />
    <glyph glyph-name="germandbls" unicode="&#xdf;" horiz-adv-x="1200" 
d="M156 43v973q0 90 25.5 170t77.5 139t134 94t195 35q96 0 169.5 -25.5t124 -71.5t76 -108.5t25.5 -136.5q0 -72 -18.5 -123t-48 -88t-68.5 -63.5t-78 -44.5q53 -6 110.5 -30t104.5 -71t78 -117.5t31 -171.5q0 -119 -31 -201.5t-83 -135t-123 -76t-152 -23.5
q-61 0 -106.5 8.5t-76 20.5t-49 23.5t-24.5 17.5q-20 18 -21 45q0 27 15.5 44t37.5 17q12 0 26.5 -7t31.5 -17q29 -16 66.5 -32.5t94.5 -16.5q47 0 95.5 12t88.5 47t64.5 96.5t24.5 159.5q0 100 -33 166.5t-87 106.5t-124 57.5t-145 17.5h-41q-20 0 -29.5 15.5t-9.5 39.5
q0 57 33 58h57q47 0 95 10t86 38t62.5 77t24.5 127q0 72 -25.5 120t-66.5 77.5t-92 42t-103 12.5q-84 0 -141 -27t-93 -75t-51.5 -115.5t-15.5 -149.5v-940q0 -35 -16 -47t-45 -12t-43 12t-14 47z" />
    <glyph glyph-name="agrave" unicode="&#xe0;" horiz-adv-x="1122" 
d="M102 268q0 76 28 139.5t96.5 109.5t184 72.5t294.5 28.5l147 3v67q0 135 -68.5 201.5t-222.5 66.5q-61 0 -106 -12t-79 -30.5t-57.5 -40t-42.5 -39.5q-20 -20 -32.5 -27.5t-24.5 -7.5q-23 0 -40 13t-17 36q0 18 9 34.5t34 39.5q41 41 89 68.5t95 43t90 21.5t78 6
q113 0 191.5 -27.5t127 -76t70 -112t21.5 -132.5v-682q0 -45 -60 -45q-41 0 -49 20.5t-8 56.5v127q-29 -41 -67 -77.5t-87 -65.5t-111.5 -45t-140.5 -16q-178 0 -260 77.5t-82 204.5zM227 279q0 -98 55.5 -145.5t186.5 -47.5q55 0 106.5 15.5t96.5 40t79.5 58t59.5 70.5
q41 66 41 160v90l-154 -2q-145 -2 -236 -19.5t-143.5 -48t-72 -74.5t-19.5 -97zM350 1464q0 27 19.5 48.5t54.5 21.5q23 0 41 -15.5t47 -50.5l156 -190q20 -23 20 -47q0 -16 -12 -27.5t-31 -11.5q-23 0 -38 10t-31 27l-187 166q-16 16 -27.5 33.5t-11.5 35.5z" />
    <glyph glyph-name="aacute" unicode="&#xe1;" horiz-adv-x="1122" 
d="M102 268q0 76 28 139.5t96.5 109.5t184 72.5t294.5 28.5l147 3v67q0 135 -68.5 201.5t-222.5 66.5q-61 0 -106 -12t-79 -30.5t-57.5 -40t-42.5 -39.5q-20 -20 -32.5 -27.5t-24.5 -7.5q-23 0 -40 13t-17 36q0 18 9 34.5t34 39.5q41 41 89 68.5t95 43t90 21.5t78 6
q113 0 191.5 -27.5t127 -76t70 -112t21.5 -132.5v-682q0 -45 -60 -45q-41 0 -49 20.5t-8 56.5v127q-29 -41 -67 -77.5t-87 -65.5t-111.5 -45t-140.5 -16q-178 0 -260 77.5t-82 204.5zM227 279q0 -98 55.5 -145.5t186.5 -47.5q55 0 106.5 15.5t96.5 40t79.5 58t59.5 70.5
q41 66 41 160v90l-154 -2q-145 -2 -236 -19.5t-143.5 -48t-72 -74.5t-19.5 -97zM448 1231q0 25 21 47l155 190q29 35 47.5 50.5t40.5 15.5q35 0 54.5 -21.5t19.5 -48.5q0 -18 -11 -35.5t-28 -33.5l-186 -166q-16 -16 -31.5 -26.5t-38.5 -10.5q-18 0 -30.5 11t-12.5 28z" />
    <glyph glyph-name="acircumflex" unicode="&#xe2;" horiz-adv-x="1122" 
d="M102 268q0 76 28 139.5t96.5 109.5t184 72.5t294.5 28.5l147 3v67q0 135 -68.5 201.5t-222.5 66.5q-61 0 -106 -12t-79 -30.5t-57.5 -40t-42.5 -39.5q-20 -20 -32.5 -27.5t-24.5 -7.5q-23 0 -40 13t-17 36q0 18 9 34.5t34 39.5q41 41 89 68.5t95 43t90 21.5t78 6
q113 0 191.5 -27.5t127 -76t70 -112t21.5 -132.5v-682q0 -45 -60 -45q-41 0 -49 20.5t-8 56.5v127q-29 -41 -67 -77.5t-87 -65.5t-111.5 -45t-140.5 -16q-178 0 -260 77.5t-82 204.5zM227 279q0 -98 55.5 -145.5t186.5 -47.5q55 0 106.5 15.5t96.5 40t79.5 58t59.5 70.5
q41 66 41 160v90l-154 -2q-145 -2 -236 -19.5t-143.5 -48t-72 -74.5t-19.5 -97zM297 1251q0 16 8.5 28.5t24.5 29.5l154 170q23 23 43 30t43 7q18 0 37.5 -6.5t35.5 -26.5l152 -170q31 -37 31 -66q0 -18 -15.5 -30.5t-31.5 -12.5q-23 0 -36.5 12.5t-41.5 43.5l-138 143
l-129 -137q-29 -31 -48 -46.5t-42 -15.5q-25 0 -36 14.5t-11 32.5z" />
    <glyph glyph-name="atilde" unicode="&#xe3;" horiz-adv-x="1122" 
d="M102 268q0 76 28 139.5t96.5 109.5t184 72.5t294.5 28.5l147 3v67q0 135 -68.5 201.5t-222.5 66.5q-61 0 -106 -12t-79 -30.5t-57.5 -40t-42.5 -39.5q-20 -20 -32.5 -27.5t-24.5 -7.5q-23 0 -40 13t-17 36q0 18 9 34.5t34 39.5q41 41 89 68.5t95 43t90 21.5t78 6
q113 0 191.5 -27.5t127 -76t70 -112t21.5 -132.5v-682q0 -45 -60 -45q-41 0 -49 20.5t-8 56.5v127q-29 -41 -67 -77.5t-87 -65.5t-111.5 -45t-140.5 -16q-178 0 -260 77.5t-82 204.5zM213 1278q0 29 16.5 54.5t34.5 45.5q35 37 70.5 52.5t76.5 15.5q66 0 138 -33l71 -33
q23 -10 53.5 -20t57.5 -10q39 0 59.5 23.5t38.5 58.5q8 14 19.5 24t27.5 10t34 -10t18 -33q0 -12 -5 -32q-16 -72 -70.5 -109t-117.5 -37q-41 0 -72.5 7.5t-62.5 21.5l-76 31q-31 14 -56.5 23t-51.5 9q-37 0 -56.5 -13t-42.5 -44q-14 -20 -23.5 -32.5t-31.5 -12.5
q-16 0 -32.5 8t-16.5 35zM227 279q0 -98 55.5 -145.5t186.5 -47.5q55 0 106.5 15.5t96.5 40t79.5 58t59.5 70.5q41 66 41 160v90l-154 -2q-145 -2 -236 -19.5t-143.5 -48t-72 -74.5t-19.5 -97z" />
    <glyph glyph-name="adieresis" unicode="&#xe4;" horiz-adv-x="1122" 
d="M102 268q0 76 28 139.5t96.5 109.5t184 72.5t294.5 28.5l147 3v67q0 135 -68.5 201.5t-222.5 66.5q-61 0 -106 -12t-79 -30.5t-57.5 -40t-42.5 -39.5q-20 -20 -32.5 -27.5t-24.5 -7.5q-23 0 -40 13t-17 36q0 18 9 34.5t34 39.5q41 41 89 68.5t95 43t90 21.5t78 6
q113 0 191.5 -27.5t127 -76t70 -112t21.5 -132.5v-682q0 -45 -60 -45q-41 0 -49 20.5t-8 56.5v127q-29 -41 -67 -77.5t-87 -65.5t-111.5 -45t-140.5 -16q-178 0 -260 77.5t-82 204.5zM227 279q0 -98 55.5 -145.5t186.5 -47.5q55 0 106.5 15.5t96.5 40t79.5 58t59.5 70.5
q41 66 41 160v90l-154 -2q-145 -2 -236 -19.5t-143.5 -48t-72 -74.5t-19.5 -97zM237 1352q0 41 25 66.5t66 25.5q35 0 64.5 -22.5t29.5 -69.5q0 -43 -27 -67.5t-67 -24.5q-41 0 -66 24.5t-25 67.5zM692 1352q0 41 24.5 66.5t65.5 25.5q35 0 63.5 -22.5t28.5 -69.5
q0 -43 -24.5 -67.5t-67.5 -24.5q-41 0 -65.5 24.5t-24.5 67.5z" />
    <glyph glyph-name="aring" unicode="&#xe5;" horiz-adv-x="1122" 
d="M102 268q0 76 28 139.5t96.5 109.5t184 72.5t294.5 28.5l147 3v67q0 135 -68.5 201.5t-222.5 66.5q-61 0 -106 -12t-79 -30.5t-57.5 -40t-42.5 -39.5q-20 -20 -32.5 -27.5t-24.5 -7.5q-23 0 -40 13t-17 36q0 18 9 34.5t34 39.5q41 41 89 68.5t95 43t90 21.5t78 6
q113 0 191.5 -27.5t127 -76t70 -112t21.5 -132.5v-682q0 -45 -60 -45q-41 0 -49 20.5t-8 56.5v127q-29 -41 -67 -77.5t-87 -65.5t-111.5 -45t-140.5 -16q-178 0 -260 77.5t-82 204.5zM227 279q0 -98 55.5 -145.5t186.5 -47.5q55 0 106.5 15.5t96.5 40t79.5 58t59.5 70.5
q41 66 41 160v90l-154 -2q-145 -2 -236 -19.5t-143.5 -48t-72 -74.5t-19.5 -97zM354 1391q0 45 17.5 85t47 69.5t70.5 47t88 17.5t88 -17.5t71 -47t47 -69.5t17 -85t-17 -85t-47 -70t-71 -47.5t-88 -17.5t-88 17.5t-70.5 47.5t-47 70t-17.5 85zM450 1391q0 -51 38 -91
t89 -40t89 40t38 91t-38 91t-89 40t-89 -40t-38 -91z" />
    <glyph glyph-name="ae" unicode="&#xe6;" horiz-adv-x="1888" 
d="M102 266q0 76 29 137.5t97.5 105.5t184 68.5t289.5 26.5l148 2v78q0 135 -70.5 203.5t-226.5 68.5q-66 0 -113 -13t-78.5 -32.5t-52 -41t-33.5 -35.5q-16 -23 -27 -29t-24 -6q-23 0 -42 13t-19 36q0 18 8 33.5t31 40.5q37 39 84 65.5t95 43t93 23.5t80 7q166 0 258 -57.5
t127 -149.5q61 98 161.5 152.5t231.5 54.5q113 0 199 -38t144.5 -104.5t88 -158t29.5 -197.5q0 -27 -15.5 -38t-39.5 -11h-764q0 -217 95 -329.5t269 -112.5q70 0 118 15t82 39t56.5 51.5t38.5 51.5q12 16 20.5 24.5t24.5 8.5q20 0 41 -12t21 -35q0 -25 -21 -53
q-18 -29 -48 -62.5t-76 -63.5t-109.5 -50.5t-147.5 -20.5q-160 0 -268 66.5t-166 189.5q-172 -240 -463 -239q-176 0 -258 77.5t-82 206.5zM219 276q0 -96 57.5 -147t192.5 -51q111 0 203 54t139 128q23 35 31 76t8 92v86l-154 -2q-145 -2 -237 -19.5t-145.5 -47t-74 -72.5
t-20.5 -97zM979 610h696q-6 72 -29.5 134.5t-65.5 109.5t-103.5 74.5t-145.5 27.5t-147.5 -26.5t-106.5 -73.5t-67.5 -110.5t-30.5 -135.5z" />
    <glyph glyph-name="ccedilla" unicode="&#xe7;" horiz-adv-x="1036" 
d="M90 516q0 121 32 221.5t93 172t149.5 111.5t202.5 40q86 0 150.5 -21.5t110.5 -53.5t76 -69.5t46 -70.5q6 -16 11.5 -27.5t5.5 -27.5q0 -27 -20.5 -43.5t-43.5 -16.5q-14 0 -25.5 6t-25.5 35q-8 14 -25.5 44t-51.5 59.5t-84 51t-124 21.5q-176 0 -262 -115.5t-86 -314.5
q0 -203 86 -322.5t262 -119.5q68 0 116 18.5t80 43t50 50.5l31 48q18 33 29.5 43t27.5 10q23 0 43.5 -16.5t20.5 -39.5q0 -20 -15 -47q-12 -20 -38.5 -57t-72.5 -74t-114 -63q-59 -23 -135 -27l-21 -71q109 -8 155 -53.5t46 -119.5q0 -78 -53 -132t-166 -54
q-63 0 -105.5 12.5t-62.5 24.5q-33 20 -33 43q0 18 13.5 39.5t29.5 21.5t45 -16q20 -10 48 -20.5t65 -10.5q45 0 75.5 20.5t30.5 67.5q0 29 -14 47.5t-37.5 28.5t-52.5 13.5t-57 3.5q-33 0 -35 16t4 35l33 108q-80 8 -144 35q-90 41 -148.5 113.5t-87 174t-28.5 224.5z" />
    <glyph glyph-name="egrave" unicode="&#xe8;" horiz-adv-x="1116" 
d="M90 514q0 119 34 220.5t97.5 173t152.5 112.5t199 41q113 0 199 -40t144.5 -108.5t88 -162t29.5 -199.5q0 -27 -15 -38t-40 -11h-764q4 -205 97.5 -317.5t267.5 -112.5q70 0 117.5 15t81.5 39t56.5 51.5t38.5 51.5q12 16 20.5 24.5t25.5 8.5q20 0 40.5 -12t20.5 -35
q0 -25 -20 -53q-18 -29 -48 -62.5t-76 -63.5t-109.5 -50.5t-147.5 -20.5q-121 0 -212.5 40t-152.5 112.5t-93 173t-32 223.5zM219 598h696q-6 72 -29.5 136.5t-65.5 113.5t-103.5 78.5t-145.5 29.5t-147.5 -28.5t-106.5 -77.5t-67.5 -114.5t-30.5 -137.5zM385 1464
q0 27 19.5 48.5t54.5 21.5q23 0 41 -15.5t47 -50.5l156 -190q20 -23 20 -47q0 -16 -12 -27.5t-31 -11.5q-23 0 -38 10t-31 27l-187 166q-16 16 -27.5 33.5t-11.5 35.5z" />
    <glyph glyph-name="eacute" unicode="&#xe9;" horiz-adv-x="1116" 
d="M90 514q0 119 34 220.5t97.5 173t152.5 112.5t199 41q113 0 199 -40t144.5 -108.5t88 -162t29.5 -199.5q0 -27 -15 -38t-40 -11h-764q4 -205 97.5 -317.5t267.5 -112.5q70 0 117.5 15t81.5 39t56.5 51.5t38.5 51.5q12 16 20.5 24.5t25.5 8.5q20 0 40.5 -12t20.5 -35
q0 -25 -20 -53q-18 -29 -48 -62.5t-76 -63.5t-109.5 -50.5t-147.5 -20.5q-121 0 -212.5 40t-152.5 112.5t-93 173t-32 223.5zM219 598h696q-6 72 -29.5 136.5t-65.5 113.5t-103.5 78.5t-145.5 29.5t-147.5 -28.5t-106.5 -77.5t-67.5 -114.5t-30.5 -137.5zM452 1231
q0 25 21 47l155 190q29 35 47.5 50.5t40.5 15.5q35 0 54.5 -21.5t19.5 -48.5q0 -18 -11 -35.5t-28 -33.5l-186 -166q-16 -16 -31.5 -26.5t-38.5 -10.5q-18 0 -30.5 11t-12.5 28z" />
    <glyph glyph-name="ecircumflex" unicode="&#xea;" horiz-adv-x="1116" 
d="M90 514q0 119 34 220.5t97.5 173t152.5 112.5t199 41q113 0 199 -40t144.5 -108.5t88 -162t29.5 -199.5q0 -27 -15 -38t-40 -11h-764q4 -205 97.5 -317.5t267.5 -112.5q70 0 117.5 15t81.5 39t56.5 51.5t38.5 51.5q12 16 20.5 24.5t25.5 8.5q20 0 40.5 -12t20.5 -35
q0 -25 -20 -53q-18 -29 -48 -62.5t-76 -63.5t-109.5 -50.5t-147.5 -20.5q-121 0 -212.5 40t-152.5 112.5t-93 173t-32 223.5zM219 598h696q-6 72 -29.5 136.5t-65.5 113.5t-103.5 78.5t-145.5 29.5t-147.5 -28.5t-106.5 -77.5t-67.5 -114.5t-30.5 -137.5zM309 1251
q0 16 8.5 28.5t24.5 29.5l154 170q23 23 43 30t43 7q18 0 37.5 -6.5t35.5 -26.5l152 -170q31 -37 31 -66q0 -18 -15.5 -30.5t-31.5 -12.5q-23 0 -36.5 12.5t-41.5 43.5l-138 143l-129 -137q-29 -31 -48 -46.5t-42 -15.5q-25 0 -36 14.5t-11 32.5z" />
    <glyph glyph-name="edieresis" unicode="&#xeb;" horiz-adv-x="1116" 
d="M90 514q0 119 34 220.5t97.5 173t152.5 112.5t199 41q113 0 199 -40t144.5 -108.5t88 -162t29.5 -199.5q0 -27 -15 -38t-40 -11h-764q4 -205 97.5 -317.5t267.5 -112.5q70 0 117.5 15t81.5 39t56.5 51.5t38.5 51.5q12 16 20.5 24.5t25.5 8.5q20 0 40.5 -12t20.5 -35
q0 -25 -20 -53q-18 -29 -48 -62.5t-76 -63.5t-109.5 -50.5t-147.5 -20.5q-121 0 -212.5 40t-152.5 112.5t-93 173t-32 223.5zM219 598h696q-6 72 -29.5 136.5t-65.5 113.5t-103.5 78.5t-145.5 29.5t-147.5 -28.5t-106.5 -77.5t-67.5 -114.5t-30.5 -137.5zM249 1352
q0 41 25 66.5t66 25.5q35 0 64.5 -22.5t29.5 -69.5q0 -43 -27 -67.5t-67 -24.5q-41 0 -66 24.5t-25 67.5zM704 1352q0 41 24.5 66.5t65.5 25.5q35 0 63.5 -22.5t28.5 -69.5q0 -43 -24.5 -67.5t-67.5 -24.5q-41 0 -65.5 24.5t-24.5 67.5z" />
    <glyph glyph-name="igrave" unicode="&#xec;" horiz-adv-x="432" 
d="M43 1464q0 27 19.5 48.5t54.5 21.5q23 0 41 -15.5t47 -50.5l156 -190q20 -23 20 -47q0 -16 -12 -27.5t-31 -11.5q-23 0 -38 10t-31 27l-187 166q-16 16 -27.5 33.5t-11.5 35.5zM158 45v936q0 35 14 47t43 12t44 -12t15 -47v-936q0 -35 -15 -47t-44 -12t-43 12t-14 47z
" />
    <glyph glyph-name="iacute" unicode="&#xed;" horiz-adv-x="432" 
d="M80 1231q0 25 21 47l155 190q29 35 47.5 50.5t40.5 15.5q35 0 54.5 -21.5t19.5 -48.5q0 -18 -11 -35.5t-28 -33.5l-186 -166q-16 -16 -31.5 -26.5t-38.5 -10.5q-18 0 -30.5 11t-12.5 28zM158 45v936q0 35 14 47t43 12t44 -12t15 -47v-936q0 -35 -15 -47t-44 -12t-43 12
t-14 47z" />
    <glyph glyph-name="icircumflex" unicode="&#xee;" horiz-adv-x="432" 
d="M-41 1251q0 16 8.5 28.5t24.5 29.5l154 170q23 23 43 30t43 7q18 0 37.5 -6.5t35.5 -26.5l152 -170q31 -37 31 -66q0 -18 -15.5 -30.5t-31.5 -12.5q-23 0 -36.5 12.5t-41.5 43.5l-138 143l-129 -137q-29 -31 -48 -46.5t-42 -15.5q-25 0 -36 14.5t-11 32.5zM158 45v936
q0 35 14 47t43 12t44 -12t15 -47v-936q0 -35 -15 -47t-44 -12t-43 12t-14 47z" />
    <glyph glyph-name="idieresis" unicode="&#xef;" horiz-adv-x="432" 
d="M-99 1352q0 41 25 66.5t66 25.5q35 0 64.5 -22.5t29.5 -69.5q0 -43 -27 -67.5t-67 -24.5q-41 0 -66 24.5t-25 67.5zM158 45v936q0 35 14 47t43 12t44 -12t15 -47v-936q0 -35 -15 -47t-44 -12t-43 12t-14 47zM356 1352q0 41 24.5 66.5t65.5 25.5q35 0 63.5 -22.5
t28.5 -69.5q0 -43 -24.5 -67.5t-67.5 -24.5q-41 0 -65.5 24.5t-24.5 67.5z" />
    <glyph glyph-name="eth" unicode="&#xf0;" horiz-adv-x="1200" 
d="M109 467q0 100 31.5 190.5t92 158t147.5 107.5t200 40q90 0 155.5 -21.5t111.5 -54.5t76.5 -72t51.5 -74q-14 145 -45 263t-90 196l-164 -102q-29 -18 -47 -19q-23 0 -38.5 20.5t-15.5 43.5t31 43l154 94q-53 35 -103.5 47t-95.5 12q-66 0 -116 -16t-107 -51
q-23 -16 -43.5 -26.5t-38.5 -10.5q-23 0 -41 17.5t-18 41.5q0 27 28 52q53 47 139.5 77.5t196.5 30.5q174 0 309 -104l191 116q10 6 19.5 11.5t21.5 5.5q18 0 33.5 -25.5t15.5 -42.5q0 -20 -31 -39l-176 -108q82 -123 118 -280t36 -347q0 -158 -29 -284t-89 -214
t-155.5 -135t-226.5 -47q-123 0 -214 39t-152.5 106.5t-92 159.5t-30.5 201zM238 459q0 -86 25.5 -159t72.5 -125t113.5 -82t150.5 -30q86 0 152.5 30t111.5 83t68.5 125t23.5 158q0 88 -27.5 160.5t-76.5 125t-117.5 82t-150.5 29.5q-80 0 -143.5 -28.5t-108.5 -81
t-69.5 -126t-24.5 -161.5z" />
    <glyph glyph-name="ntilde" unicode="&#xf1;" horiz-adv-x="1171" 
d="M156 45v940q0 33 15 44t40 11q27 0 43 -11t16 -44v-186q12 27 39 71.5t75 86.5t116.5 73t163.5 31q158 0 255 -87t97 -272v-667q0 -49 -55 -49q-63 0 -64 49v622q0 139 -56.5 213t-201.5 74q-96 0 -166 -41t-114 -105.5t-64.5 -145.5t-20.5 -158v-449q0 -35 -15 -47
t-44 -12t-44 12t-15 47zM273 1278q0 29 16.5 54.5t34.5 45.5q35 37 70.5 52.5t76.5 15.5q66 0 138 -33l71 -33q23 -10 53.5 -20t57.5 -10q39 0 59.5 23.5t38.5 58.5q8 14 19.5 24t27.5 10t34 -10t18 -33q0 -12 -5 -32q-16 -72 -70.5 -109t-117.5 -37q-41 0 -72.5 7.5
t-62.5 21.5l-76 31q-31 14 -56.5 23t-51.5 9q-37 0 -56.5 -13t-42.5 -44q-14 -20 -23.5 -32.5t-31.5 -12.5q-16 0 -32.5 8t-16.5 35z" />
    <glyph glyph-name="ograve" unicode="&#xf2;" horiz-adv-x="1169" 
d="M90 514q0 129 36 230.5t100.5 172t155.5 107.5t202 37t203 -37t156.5 -107.5t100 -172t35.5 -230.5t-35.5 -231.5t-100 -173t-157 -107.5t-202.5 -37q-111 0 -202 37t-155.5 107.5t-100.5 173t-36 231.5zM219 514q0 -211 94.5 -325.5t270.5 -114.5q178 0 272 114.5
t94 325.5q0 209 -94 324.5t-272 115.5q-176 0 -270.5 -115.5t-94.5 -324.5zM407 1464q0 27 19.5 48.5t54.5 21.5q23 0 41 -15.5t47 -50.5l156 -190q20 -23 20 -47q0 -16 -12 -27.5t-31 -11.5q-23 0 -38 10t-31 27l-187 166q-16 16 -27.5 33.5t-11.5 35.5z" />
    <glyph glyph-name="oacute" unicode="&#xf3;" horiz-adv-x="1169" 
d="M90 514q0 129 36 230.5t100.5 172t155.5 107.5t202 37t203 -37t156.5 -107.5t100 -172t35.5 -230.5t-35.5 -231.5t-100 -173t-157 -107.5t-202.5 -37q-111 0 -202 37t-155.5 107.5t-100.5 173t-36 231.5zM219 514q0 -211 94.5 -325.5t270.5 -114.5q178 0 272 114.5
t94 325.5q0 209 -94 324.5t-272 115.5q-176 0 -270.5 -115.5t-94.5 -324.5zM463 1231q0 25 21 47l155 190q29 35 47.5 50.5t40.5 15.5q35 0 54.5 -21.5t19.5 -48.5q0 -18 -11 -35.5t-28 -33.5l-186 -166q-16 -16 -31.5 -26.5t-38.5 -10.5q-18 0 -30.5 11t-12.5 28z" />
    <glyph glyph-name="ocircumflex" unicode="&#xf4;" horiz-adv-x="1169" 
d="M90 514q0 129 36 230.5t100.5 172t155.5 107.5t202 37t203 -37t156.5 -107.5t100 -172t35.5 -230.5t-35.5 -231.5t-100 -173t-157 -107.5t-202.5 -37q-111 0 -202 37t-155.5 107.5t-100.5 173t-36 231.5zM219 514q0 -211 94.5 -325.5t270.5 -114.5q178 0 272 114.5
t94 325.5q0 209 -94 324.5t-272 115.5q-176 0 -270.5 -115.5t-94.5 -324.5zM327 1251q0 16 8.5 28.5t24.5 29.5l154 170q23 23 43 30t43 7q18 0 37.5 -6.5t35.5 -26.5l152 -170q31 -37 31 -66q0 -18 -15.5 -30.5t-31.5 -12.5q-23 0 -36.5 12.5t-41.5 43.5l-138 143
l-129 -137q-29 -31 -48 -46.5t-42 -15.5q-25 0 -36 14.5t-11 32.5z" />
    <glyph glyph-name="otilde" unicode="&#xf5;" horiz-adv-x="1169" 
d="M90 514q0 129 36 230.5t100.5 172t155.5 107.5t202 37t203 -37t156.5 -107.5t100 -172t35.5 -230.5t-35.5 -231.5t-100 -173t-157 -107.5t-202.5 -37q-111 0 -202 37t-155.5 107.5t-100.5 173t-36 231.5zM219 514q0 -211 94.5 -325.5t270.5 -114.5q178 0 272 114.5
t94 325.5q0 209 -94 324.5t-272 115.5q-176 0 -270.5 -115.5t-94.5 -324.5zM234 1278q0 29 16.5 54.5t34.5 45.5q35 37 70.5 52.5t76.5 15.5q66 0 138 -33l71 -33q23 -10 53.5 -20t57.5 -10q39 0 59.5 23.5t38.5 58.5q8 14 19.5 24t27.5 10t34 -10t18 -33q0 -12 -5 -32
q-16 -72 -70.5 -109t-117.5 -37q-41 0 -72.5 7.5t-62.5 21.5l-76 31q-31 14 -56.5 23t-51.5 9q-37 0 -56.5 -13t-42.5 -44q-14 -20 -23.5 -32.5t-31.5 -12.5q-16 0 -32.5 8t-16.5 35z" />
    <glyph glyph-name="odieresis" unicode="&#xf6;" horiz-adv-x="1169" 
d="M90 514q0 129 36 230.5t100.5 172t155.5 107.5t202 37t203 -37t156.5 -107.5t100 -172t35.5 -230.5t-35.5 -231.5t-100 -173t-157 -107.5t-202.5 -37q-111 0 -202 37t-155.5 107.5t-100.5 173t-36 231.5zM219 514q0 -211 94.5 -325.5t270.5 -114.5q178 0 272 114.5
t94 325.5q0 209 -94 324.5t-272 115.5q-176 0 -270.5 -115.5t-94.5 -324.5zM256 1352q0 41 25 66.5t66 25.5q35 0 64.5 -22.5t29.5 -69.5q0 -43 -27 -67.5t-67 -24.5q-41 0 -66 24.5t-25 67.5zM711 1352q0 41 24.5 66.5t65.5 25.5q35 0 63.5 -22.5t28.5 -69.5
q0 -43 -24.5 -67.5t-67.5 -24.5q-41 0 -65.5 24.5t-24.5 67.5z" />
    <glyph glyph-name="divide" unicode="&#xf7;" 
d="M174 705q0 27 9.5 42t35.5 15h821q27 0 36 -15.5t9 -41.5q0 -29 -9 -43.5t-36 -14.5h-821q-27 0 -36 14.5t-9 43.5zM530 315q0 43 30 74t73 31q41 0 69.5 -31t28.5 -74q0 -45 -28.5 -76.5t-69.5 -31.5q-43 0 -73 31.5t-30 76.5zM530 1090q0 43 30 73.5t73 30.5
q41 0 69.5 -30.5t28.5 -73.5q0 -45 -28.5 -77t-69.5 -32q-43 0 -73 32t-30 77z" />
    <glyph glyph-name="oslash" unicode="&#xf8;" horiz-adv-x="1189" 
d="M100 514q0 129 36 230.5t100.5 172t155.5 107.5t202 37q162 0 283 -80l122 174q18 29 43 29q18 0 39 -15.5t21 -38.5q0 -20 -15 -40l-129 -181q63 -72 97.5 -170t34.5 -225q0 -129 -36 -231.5t-100.5 -173t-156.5 -107.5t-203 -37q-145 0 -256 64l-121 -170
q-16 -25 -45 -25q-20 0 -38.5 13.5t-18.5 35.5q0 20 16 43l119 168q-72 72 -111 177.5t-39 242.5zM229 514q0 -207 90 -319l492 694q-43 31 -97.5 48t-119.5 17q-176 0 -270.5 -115.5t-94.5 -324.5zM403 121q78 -47 191 -47q178 0 272.5 114.5t94.5 325.5q0 182 -74 293z
" />
    <glyph glyph-name="ugrave" unicode="&#xf9;" horiz-adv-x="1171" 
d="M156 324v669q0 49 55 49q63 0 63 -49v-624q0 -139 53.5 -216t198.5 -77q94 0 164 42t116 107.5t68.5 147.5t22.5 159v451q0 35 15.5 47t43.5 12q29 0 44.5 -12t15.5 -47v-942q0 -33 -15.5 -44t-39.5 -11q-27 0 -43.5 11t-16.5 44v182q-12 -29 -38.5 -71.5t-75 -84.5
t-117 -72t-162.5 -30q-162 0 -257 87t-95 272zM411 1464q0 27 19.5 48.5t54.5 21.5q23 0 41 -15.5t47 -50.5l156 -190q20 -23 20 -47q0 -16 -12 -27.5t-31 -11.5q-23 0 -38 10t-31 27l-187 166q-16 16 -27.5 33.5t-11.5 35.5z" />
    <glyph glyph-name="uacute" unicode="&#xfa;" horiz-adv-x="1171" 
d="M156 324v669q0 49 55 49q63 0 63 -49v-624q0 -139 53.5 -216t198.5 -77q94 0 164 42t116 107.5t68.5 147.5t22.5 159v451q0 35 15.5 47t43.5 12q29 0 44.5 -12t15.5 -47v-942q0 -33 -15.5 -44t-39.5 -11q-27 0 -43.5 11t-16.5 44v182q-12 -29 -38.5 -71.5t-75 -84.5
t-117 -72t-162.5 -30q-162 0 -257 87t-95 272zM487 1231q0 25 21 47l155 190q29 35 47.5 50.5t40.5 15.5q35 0 54.5 -21.5t19.5 -48.5q0 -18 -11 -35.5t-28 -33.5l-186 -166q-16 -16 -31.5 -26.5t-38.5 -10.5q-18 0 -30.5 11t-12.5 28z" />
    <glyph glyph-name="ucircumflex" unicode="&#xfb;" horiz-adv-x="1171" 
d="M156 324v669q0 49 55 49q63 0 63 -49v-624q0 -139 53.5 -216t198.5 -77q94 0 164 42t116 107.5t68.5 147.5t22.5 159v451q0 35 15.5 47t43.5 12q29 0 44.5 -12t15.5 -47v-942q0 -33 -15.5 -44t-39.5 -11q-27 0 -43.5 11t-16.5 44v182q-12 -29 -38.5 -71.5t-75 -84.5
t-117 -72t-162.5 -30q-162 0 -257 87t-95 272zM332 1251q0 16 8.5 28.5t24.5 29.5l154 170q23 23 43 30t43 7q18 0 37.5 -6.5t35.5 -26.5l152 -170q31 -37 31 -66q0 -18 -15.5 -30.5t-31.5 -12.5q-23 0 -36.5 12.5t-41.5 43.5l-138 143l-129 -137q-29 -31 -48 -46.5
t-42 -15.5q-25 0 -36 14.5t-11 32.5z" />
    <glyph glyph-name="udieresis" unicode="&#xfc;" horiz-adv-x="1171" 
d="M156 324v669q0 49 55 49q63 0 63 -49v-624q0 -139 53.5 -216t198.5 -77q94 0 164 42t116 107.5t68.5 147.5t22.5 159v451q0 35 15.5 47t43.5 12q29 0 44.5 -12t15.5 -47v-942q0 -33 -15.5 -44t-39.5 -11q-27 0 -43.5 11t-16.5 44v182q-12 -29 -38.5 -71.5t-75 -84.5
t-117 -72t-162.5 -30q-162 0 -257 87t-95 272zM260 1352q0 41 25 66.5t66 25.5q35 0 64.5 -22.5t29.5 -69.5q0 -43 -27 -67.5t-67 -24.5q-41 0 -66 24.5t-25 67.5zM715 1352q0 41 24.5 66.5t65.5 25.5q35 0 63.5 -22.5t28.5 -69.5q0 -43 -24.5 -67.5t-67.5 -24.5
q-41 0 -65.5 24.5t-24.5 67.5z" />
    <glyph glyph-name="yacute" unicode="&#xfd;" horiz-adv-x="1024" 
d="M39 989q0 27 23.5 40t52.5 13q27 0 45 -45l346 -833l362 835q16 43 45 43q27 0 49.5 -13t22.5 -36q0 -8 -4 -21.5t-8 -25.5l-588 -1339q-18 -45 -53 -45q-25 0 -42.5 14t-17.5 39q0 16 15 51l153 344l-389 930q-4 10 -8 23.5t-4 25.5zM395 1231q0 25 21 47l155 190
q29 35 47.5 50.5t40.5 15.5q35 0 54.5 -21.5t19.5 -48.5q0 -18 -11 -35.5t-28 -33.5l-186 -166q-16 -16 -31.5 -26.5t-38.5 -10.5q-18 0 -30.5 11t-12.5 28z" />
    <glyph glyph-name="thorn" unicode="&#xfe;" horiz-adv-x="1200" 
d="M156 -381v1755q0 35 14 48.5t43 13.5t44 -13.5t15 -48.5v-514q59 84 151.5 142.5t231.5 58.5q104 0 186.5 -40t138.5 -111.5t86 -172t30 -221.5t-30 -221t-88 -173t-142 -114t-193 -41q-127 0 -221 50.5t-150 160.5v-559q0 -33 -17 -44t-44 -11t-41 11t-14 44zM266 518
q0 -96 22.5 -177t67.5 -140.5t110.5 -92t151.5 -32.5q84 0 150 31.5t110 89t66.5 137.5t22.5 176q0 98 -21.5 179t-64.5 139.5t-106.5 90t-147.5 31.5q-172 0 -266.5 -113.5t-94.5 -318.5z" />
    <glyph glyph-name="ydieresis" unicode="&#xff;" horiz-adv-x="1024" 
d="M39 989q0 27 23.5 40t52.5 13q27 0 45 -45l346 -833l362 835q16 43 45 43q27 0 49.5 -13t22.5 -36q0 -8 -4 -21.5t-8 -25.5l-588 -1339q-18 -45 -53 -45q-25 0 -42.5 14t-17.5 39q0 16 15 51l153 344l-389 930q-4 10 -8 23.5t-4 25.5zM204 1352q0 41 25 66.5t66 25.5
q35 0 64.5 -22.5t29.5 -69.5q0 -43 -27 -67.5t-67 -24.5q-41 0 -66 24.5t-25 67.5zM659 1352q0 41 24.5 66.5t65.5 25.5q35 0 63.5 -22.5t28.5 -69.5q0 -43 -24.5 -67.5t-67.5 -24.5q-41 0 -65.5 24.5t-24.5 67.5z" />
    <glyph glyph-name="OE" unicode="&#x152;" horiz-adv-x="2068" 
d="M104 709q0 174 50.5 312t142.5 234.5t222 148.5t290 52q33 0 73 -3t79.5 -8t76.5 -11.5t66 -12.5h833q47 0 48 -55q0 -57 -48 -57h-782v-527h741q47 0 48 -55q0 -57 -48 -57h-741v-557h782q47 0 48 -56q0 -57 -48 -57h-833q-29 -6 -68 -13t-81 -11.5t-84 -7.5t-74 -3
q-170 0 -300 51.5t-217 147.5t-131.5 233.5t-44.5 311.5zM244 709q0 -143 33.5 -260t100 -200t166 -129t230.5 -46q61 0 122.5 5t135.5 23v1215q-68 12 -130 19t-111 7q-135 0 -237.5 -46t-171.5 -129t-103.5 -200.5t-34.5 -258.5z" />
    <glyph glyph-name="oe" unicode="&#x153;" horiz-adv-x="1992" 
d="M100 512q0 129 36 230.5t100.5 172t155.5 108.5t202 38q158 0 265.5 -73t160.5 -210q51 131 157.5 207t260.5 76q113 0 198.5 -40t144 -108.5t88 -162t29.5 -199.5q0 -27 -15 -38t-40 -11h-764q4 -205 97.5 -317.5t267.5 -112.5q70 0 118 15t81.5 39t56 51.5t39.5 51.5
q12 16 20 24.5t25 8.5q20 0 40.5 -12t20.5 -35q0 -25 -20 -53q-18 -29 -48 -62.5t-76 -63.5t-109.5 -50.5t-147.5 -20.5q-166 0 -272.5 74t-155.5 203q-55 -135 -164 -206t-266 -71q-111 0 -201 37t-153.5 107.5t-97.5 172t-34 230.5zM229 512q0 -211 94.5 -324.5
t270.5 -113.5q178 0 272.5 113.5t94.5 324.5q0 209 -94.5 325.5t-272.5 116.5q-176 0 -270.5 -116.5t-94.5 -325.5zM1083 598h697q-6 72 -30 136.5t-66 113.5t-103 78.5t-145 29.5t-147.5 -28.5t-106.5 -77.5t-67.5 -114.5t-31.5 -137.5z" />
    <glyph glyph-name="Ydieresis" unicode="&#x178;" horiz-adv-x="1220" 
d="M35 1376q0 27 20.5 43.5t42.5 16.5q27 0 45 -27l473 -641l457 633q23 35 51 35q18 0 40 -12.5t22 -39.5q0 -10 -6 -25.5t-17 -29.5l-489 -676v-606q0 -35 -16.5 -48t-45.5 -13t-46 13t-17 48v610l-492 668q-8 10 -15 24.5t-7 26.5zM305 1647q0 41 24.5 66.5t65.5 25.5
q35 0 64.5 -22.5t29.5 -69.5q0 -43 -26.5 -68t-67.5 -25t-65.5 25t-24.5 68zM760 1647q0 41 24.5 66.5t65.5 25.5q35 0 63.5 -22.5t28.5 -69.5q0 -43 -24.5 -68t-67.5 -25q-41 0 -65.5 25t-24.5 68z" />
    <glyph glyph-name="circumflex" unicode="&#x2c6;" horiz-adv-x="958" 
d="M96 1251q0 16 8.5 28.5t24.5 29.5l154 170q23 23 43 30t43 7q18 0 37.5 -6.5t35.5 -26.5l152 -170q31 -37 31 -66q0 -18 -15.5 -30.5t-31.5 -12.5q-23 0 -36.5 12.5t-41.5 43.5l-138 143l-129 -137q-29 -31 -48 -46.5t-42 -15.5q-25 0 -36 14.5t-11 32.5z" />
    <glyph glyph-name="tilde" unicode="&#x2dc;" horiz-adv-x="958" 
d="M119 1278q0 29 16.5 54.5t34.5 45.5q35 37 70.5 52.5t76.5 15.5q66 0 138 -33l71 -33q23 -10 53.5 -20t57.5 -10q39 0 59.5 23.5t38.5 58.5q8 14 19.5 24t27.5 10t34 -10t18 -33q0 -12 -5 -32q-16 -72 -70.5 -109t-117.5 -37q-41 0 -72.5 7.5t-62.5 21.5l-76 31
q-31 14 -56.5 23t-51.5 9q-37 0 -56.5 -13t-42.5 -44q-14 -20 -23.5 -32.5t-31.5 -12.5q-16 0 -32.5 8t-16.5 35z" />
    <glyph glyph-name="uni2000" unicode="&#x2000;" horiz-adv-x="973" 
 />
    <glyph glyph-name="uni2001" unicode="&#x2001;" horiz-adv-x="1946" 
 />
    <glyph glyph-name="uni2002" unicode="&#x2002;" horiz-adv-x="973" 
 />
    <glyph glyph-name="uni2003" unicode="&#x2003;" horiz-adv-x="1946" 
 />
    <glyph glyph-name="uni2004" unicode="&#x2004;" horiz-adv-x="648" 
 />
    <glyph glyph-name="uni2005" unicode="&#x2005;" horiz-adv-x="486" 
 />
    <glyph glyph-name="uni2006" unicode="&#x2006;" horiz-adv-x="324" 
 />
    <glyph glyph-name="uni2007" unicode="&#x2007;" horiz-adv-x="324" 
 />
    <glyph glyph-name="uni2008" unicode="&#x2008;" horiz-adv-x="243" 
 />
    <glyph glyph-name="uni2009" unicode="&#x2009;" horiz-adv-x="389" 
 />
    <glyph glyph-name="uni200A" unicode="&#x200a;" horiz-adv-x="108" 
 />
    <glyph glyph-name="uni2010" unicode="&#x2010;" horiz-adv-x="542" 
d="M49 528q0 63 53 64h336q55 0 56 -64q0 -66 -56 -65h-336q-53 0 -53 65z" />
    <glyph glyph-name="uni2011" unicode="&#x2011;" horiz-adv-x="542" 
d="M49 528q0 63 53 64h336q55 0 56 -64q0 -66 -56 -65h-336q-53 0 -53 65z" />
    <glyph glyph-name="figuredash" unicode="&#x2012;" horiz-adv-x="542" 
d="M49 528q0 63 53 64h336q55 0 56 -64q0 -66 -56 -65h-336q-53 0 -53 65z" />
    <glyph glyph-name="endash" unicode="&#x2013;" horiz-adv-x="1024" 
d="M0 514q0 55 47 55h930q47 0 47 -55q0 -59 -47 -59h-930q-47 0 -47 59z" />
    <glyph glyph-name="emdash" unicode="&#x2014;" horiz-adv-x="2048" 
d="M0 514q0 55 47 55h1954q47 0 47 -55q0 -59 -47 -59h-1954q-47 0 -47 59z" />
    <glyph glyph-name="quoteleft" unicode="&#x2018;" horiz-adv-x="425" 
d="M135 1126q0 78 26.5 151t74.5 128q12 14 22 22.5t27 8.5q16 0 27.5 -9.5t11.5 -21.5q0 -10 -6.5 -19.5t-16.5 -23.5q-27 -35 -46 -75t-28 -95q49 -4 74 -34t25 -64q0 -41 -26 -65.5t-67 -24.5t-69.5 26t-28.5 96z" />
    <glyph glyph-name="quoteright" unicode="&#x2019;" horiz-adv-x="401" 
d="M104 1346q0 41 26 65.5t67 24.5t69.5 -26.5t28.5 -96.5q0 -78 -26.5 -150.5t-73.5 -128.5q-12 -14 -22.5 -22t-27.5 -8q-16 0 -27.5 9t-11.5 21q0 10 6.5 19.5t16.5 23.5q27 35 46.5 75t27.5 95q-49 4 -74 34t-25 65z" />
    <glyph glyph-name="quotesinglbase" unicode="&#x201a;" horiz-adv-x="366" 
d="M98 100q0 41 26 65.5t66 24.5q41 0 70 -26t29 -96q0 -78 -26.5 -151t-74.5 -128q-12 -14 -22 -22.5t-27 -8.5q-16 0 -27.5 9.5t-11.5 21.5q0 10 6.5 19.5t16.5 23.5q27 35 46 75t28 95q-49 4 -74 34t-25 64z" />
    <glyph glyph-name="quotedblleft" unicode="&#x201c;" horiz-adv-x="772" 
d="M135 1126q0 78 26.5 151t74.5 128q12 14 22 22.5t27 8.5q16 0 27.5 -9.5t11.5 -21.5q0 -10 -6.5 -19.5t-16.5 -23.5q-27 -35 -46 -75t-28 -95q49 -4 74 -34t25 -64q0 -41 -26 -65.5t-67 -24.5t-69.5 26t-28.5 96zM481 1126q0 78 26.5 151t74.5 128q12 14 22 22.5t27 8.5
q16 0 27.5 -9.5t11.5 -21.5q0 -10 -6.5 -19.5t-16.5 -23.5q-27 -35 -46 -75t-28 -95q49 -4 74 -34t25 -64q0 -41 -26 -65.5t-67 -24.5t-69.5 26t-28.5 96z" />
    <glyph glyph-name="quotedblright" unicode="&#x201d;" horiz-adv-x="747" 
d="M104 1346q0 41 26 65.5t67 24.5t69.5 -26.5t28.5 -96.5q0 -78 -26.5 -150.5t-73.5 -128.5q-12 -14 -22.5 -22t-27.5 -8q-16 0 -27.5 9t-11.5 21q0 10 6.5 19.5t16.5 23.5q27 35 46.5 75t27.5 95q-49 4 -74 34t-25 65zM450 1346q0 41 26 65.5t67 24.5t69.5 -26.5
t28.5 -96.5q0 -78 -26.5 -150.5t-73.5 -128.5q-12 -14 -22.5 -22t-27.5 -8q-16 0 -27.5 9t-11.5 21q0 10 6.5 19.5t16.5 23.5q27 35 46.5 75t27.5 95q-49 4 -74 34t-25 65z" />
    <glyph glyph-name="quotedblbase" unicode="&#x201e;" horiz-adv-x="712" 
d="M98 100q0 41 26 65.5t66 24.5q41 0 70 -26t29 -96q0 -78 -26.5 -151t-74.5 -128q-12 -14 -22 -22.5t-27 -8.5q-16 0 -27.5 9.5t-11.5 21.5q0 10 6.5 19.5t16.5 23.5q27 35 46 75t28 95q-49 4 -74 34t-25 64zM444 100q0 41 26 65.5t66 24.5q41 0 70 -26t29 -96
q0 -78 -26.5 -151t-74.5 -128q-12 -14 -22 -22.5t-27 -8.5q-16 0 -27.5 9.5t-11.5 21.5q0 10 6.5 19.5t16.5 23.5q27 35 46 75t28 95q-49 4 -74 34t-25 64z" />
    <glyph glyph-name="bullet" unicode="&#x2022;" horiz-adv-x="819" 
d="M164 727q0 51 19.5 96t52 78t77.5 52.5t97 19.5q51 0 96 -19.5t77.5 -52.5t52 -78t19.5 -96t-19.5 -96t-52 -78t-77.5 -52.5t-96 -19.5t-96.5 19.5t-78 52.5t-52 78t-19.5 96z" />
    <glyph glyph-name="ellipsis" unicode="&#x2026;" horiz-adv-x="1759" 
d="M231 86q0 41 29 72.5t70 31.5q39 0 68.5 -31.5t29.5 -72.5t-30 -71.5t-68 -30.5q-41 0 -70 30.5t-29 71.5zM782 86q0 41 29 72.5t70 31.5q39 0 68.5 -31.5t29.5 -72.5t-30 -71.5t-68 -30.5q-41 0 -70 30.5t-29 71.5zM1343 86q0 41 29 72.5t70 31.5q39 0 68.5 -31.5
t29.5 -72.5t-30 -71.5t-68 -30.5q-41 0 -70 30.5t-29 71.5z" />
    <glyph glyph-name="uni202F" unicode="&#x202f;" horiz-adv-x="389" 
 />
    <glyph glyph-name="guilsinglleft" unicode="&#x2039;" horiz-adv-x="651" 
d="M102 543q0 14 6.5 24.5t14.5 20.5l307 348q25 29 45 29q23 0 43.5 -20.5t20.5 -43.5q0 -14 -7.5 -26.5t-25.5 -32.5l-260 -291l256 -289q16 -18 22 -29.5t6 -23.5q0 -25 -20.5 -44.5t-42.5 -19.5q-25 0 -51 33l-289 316q-10 10 -17.5 22t-7.5 27z" />
    <glyph glyph-name="guilsinglright" unicode="&#x203a;" horiz-adv-x="651" 
d="M113 901q0 23 20.5 43.5t42.5 20.5q20 0 45 -29l307 -348q8 -10 14.5 -20.5t6.5 -24.5t-7 -26.5t-18 -22.5l-288 -316q-27 -33 -52 -33q-23 0 -43 19.5t-20 44.5q0 12 6 23.5t23 29.5l256 285l-261 295q-18 20 -25 32.5t-7 26.5z" />
    <glyph glyph-name="uni205F" unicode="&#x205f;" horiz-adv-x="486" 
 />
    <glyph glyph-name="Euro" unicode="&#x20ac;" 
d="M57 526q0 25 8.5 37t32.5 12h158q-2 27 -3 65t-1 65q0 25 1 59.5t3 56.5h-158q-25 0 -33 14.5t-8 36.5q0 25 8.5 35.5t32.5 10.5h166q35 240 165 371.5t355 131.5q94 0 172 -30.5t136 -79.5q41 -35 70.5 -71t29.5 -81q0 -25 -19.5 -38t-37.5 -13q-23 0 -36.5 14.5
t-37.5 46.5q-72 88 -142.5 114t-152.5 26q-156 0 -255 -103.5t-116 -287.5h457q25 0 33 -10.5t8 -35.5q0 -23 -8 -37t-33 -14h-469q-2 -23 -3 -57.5t-1 -58.5q0 -27 1 -65t3 -65h469q25 0 33 -12t8 -37q0 -23 -8 -35t-33 -12h-457q37 -193 127 -292t256 -99q51 0 92 6
t77 22.5t68 45t66 74.5q31 43 43.5 56t28.5 13q18 0 38.5 -13t20.5 -36q0 -43 -35.5 -88t-76.5 -80q-59 -53 -141 -83t-179 -30q-225 0 -349 129t-165 375h-168q-25 0 -33 12.5t-8 34.5z" />
    <glyph glyph-name="trademark" unicode="&#x2122;" horiz-adv-x="1761" 
d="M61 1372q0 20 6.5 34.5t18.5 14.5h576q14 0 20 -14t6 -35q0 -18 -8 -33.5t-29 -15.5h-227v-655q0 -18 -13.5 -31.5t-41.5 -13.5q-53 0 -54 45v655h-219q-18 0 -26.5 15.5t-8.5 33.5zM831 670v696q0 70 95 70q41 0 67.5 -28t40.5 -69l197 -569l211 567q14 37 33.5 68
t72.5 31q92 0 92 -60v-710q0 -23 -15 -35.5t-38 -12.5q-29 0 -39 13.5t-10 36.5v649l-217 -578q-25 -66 -88 -65q-68 0 -88 55l-211 586v-651q0 -18 -9.5 -32t-35.5 -14q-57 0 -58 52z" />
    <glyph glyph-name="uni25FC" unicode="&#x25fc;" horiz-adv-x="1040" 
d="M0 0v1040h1040v-1040h-1040z" />
    </font>
</defs>
</svg>
